<?xml version="1.0" encoding="utf-8"?>
<!-- Generator: Adobe Illustrator 27.5.0, SVG Export Plug-In . SVG Version: 6.00 Build 0)  -->
<svg version="1.1" xmlns="http://www.w3.org/2000/svg" xmlns:xlink="http://www.w3.org/1999/xlink" x="0px" y="0px"
	 viewBox="0 0 750 500" style="enable-background:new 0 0 750 500;" xml:space="preserve">
<g id="BACKGROUND">
	<rect style="fill:#BCDFFD;" width="750" height="500"/>
	<g>
		<path style="opacity:0.4;fill:#BCDFFD;" d="M104.568,276.207c-3.809-26.228-7.349-53.012-3.999-79.163
			c4.666-36.422,23.298-69.733,49.767-88.976c26.469-19.243,60.322-24.088,90.423-12.94c52.121,19.302,89.305,81.847,143.151,91.726
			c38.54,7.071,76.246-15.167,106.826-42.76c8.493-7.664,16.804-15.879,26.602-21.012c7.127-3.734,14.857-5.729,22.629-6.926
			c19.458-2.997,40.129-0.863,57.52,10.368c34.37,22.196,47.31,73.279,47.857,119.056c0.351,29.344-3.084,58.996-12.854,85.765
			c-9.771,26.768-26.215,50.538-47.994,64.313c-28.986,18.335-64.307,17.546-97.038,10.422
			c-32.731-7.124-64.611-20.076-97.622-24.73c-58.866-8.299-117.334,10.15-176.104,16.8c-18.245,2.064-37.134,2.909-54.61-4.14
			C118.832,377.759,110.778,318.974,104.568,276.207z"/>
		<path style="opacity:0.4;fill:#BCDFFD;" d="M627.28,142.14c5.211,2.422,11.636,2.904,16.557-0.063
			c7.668-4.623,8.758-16.079,4.341-23.868c-6.06-10.685-34.347-28.714-42.794-12.268C598.484,119.376,616.725,137.235,627.28,142.14
			z"/>
	</g>
</g>
<g id="OBJECTS">
	<g>
		<g>
			<g>
				<path style="fill:#55C1F2;" d="M322.67,189.21c-0.211,0-0.407-0.134-0.476-0.345c-0.361-1.108-0.7-2.246-1.008-3.381
					c-0.072-0.267,0.085-0.541,0.352-0.613c0.268-0.074,0.542,0.085,0.613,0.352c0.304,1.119,0.638,2.241,0.994,3.333
					c0.085,0.263-0.058,0.545-0.321,0.63C322.773,189.202,322.721,189.21,322.67,189.21z"/>
			</g>
		</g>
		<g>
			<g>
				<path style="fill:#55C1F2;" d="M512.878,289.671c-0.235,0-0.444-0.167-0.49-0.407c-0.052-0.271,0.127-0.532,0.398-0.584
					c2.294-0.436,4.589-0.877,6.883-1.328c0.268-0.058,0.534,0.122,0.587,0.393c0.054,0.271-0.123,0.534-0.394,0.587
					c-2.296,0.453-4.593,0.895-6.891,1.33C512.94,289.668,512.909,289.671,512.878,289.671z M526.641,286.951
					c-0.232,0-0.44-0.162-0.489-0.397c-0.057-0.271,0.117-0.535,0.387-0.592c2.287-0.478,4.571-0.968,6.849-1.478
					c0.273-0.058,0.537,0.109,0.598,0.379c0.06,0.27-0.109,0.537-0.379,0.598c-2.283,0.51-4.571,1.002-6.862,1.479
					C526.708,286.948,526.674,286.951,526.641,286.951z M540.327,283.883c-0.226,0-0.431-0.153-0.486-0.382
					c-0.064-0.269,0.1-0.539,0.368-0.604c2.354-0.571,4.638-1.151,6.788-1.723c0.271-0.072,0.541,0.089,0.611,0.355
					s-0.088,0.54-0.356,0.611c-2.156,0.572-4.447,1.154-6.808,1.729C540.405,283.878,540.366,283.883,540.327,283.883z
					 M553.879,280.273c-0.217,0-0.416-0.142-0.479-0.359c-0.078-0.266,0.074-0.543,0.339-0.62c2.267-0.664,4.517-1.358,6.688-2.064
					c0.263-0.085,0.545,0.059,0.63,0.321c0.085,0.263-0.059,0.544-0.321,0.63c-2.18,0.709-4.44,1.406-6.715,2.072
					C553.973,280.267,553.925,280.273,553.879,280.273z M567.213,275.932c-0.204,0-0.396-0.126-0.47-0.33
					c-0.095-0.26,0.04-0.546,0.3-0.64c2.229-0.808,4.428-1.647,6.533-2.499c0.255-0.102,0.547,0.02,0.651,0.276
					c0.104,0.256-0.021,0.548-0.276,0.651c-2.117,0.855-4.327,1.7-6.568,2.511C567.327,275.922,567.269,275.932,567.213,275.932z
					 M580.214,270.672c-0.19,0-0.372-0.109-0.456-0.294c-0.113-0.252-0.001-0.548,0.25-0.662c1.137-0.513,2.267-1.038,3.393-1.578
					c0.976-0.467,1.948-0.946,2.915-1.438c0.245-0.125,0.548-0.027,0.672,0.219c0.126,0.246,0.027,0.547-0.219,0.672
					c-0.975,0.495-1.953,0.979-2.937,1.449c-1.132,0.542-2.269,1.071-3.412,1.588C580.352,270.657,580.283,270.672,580.214,270.672z
					 M592.717,264.316c-0.173,0-0.342-0.091-0.434-0.252c-0.138-0.239-0.055-0.545,0.186-0.682c2.021-1.157,4.032-2.376,5.975-3.625
					c0.232-0.149,0.541-0.083,0.691,0.15c0.15,0.232,0.082,0.542-0.15,0.691c-1.958,1.258-3.983,2.486-6.021,3.65
					C592.887,264.295,592.802,264.316,592.717,264.316z M604.513,256.73c-0.155,0-0.308-0.072-0.405-0.208
					c-0.162-0.224-0.111-0.536,0.113-0.697c1.898-1.369,3.766-2.796,5.548-4.242c0.213-0.174,0.528-0.141,0.704,0.073
					c0.174,0.215,0.141,0.53-0.074,0.704c-1.797,1.458-3.68,2.896-5.594,4.275C604.717,256.7,604.614,256.73,604.513,256.73z
					 M615.397,247.897c-0.136,0-0.27-0.055-0.369-0.163c-0.186-0.204-0.172-0.52,0.032-0.707c1.723-1.575,3.405-3.214,4.998-4.87
					c0.193-0.199,0.51-0.204,0.707-0.014c0.199,0.191,0.205,0.508,0.014,0.707c-1.608,1.671-3.306,3.325-5.045,4.915
					C615.639,247.854,615.518,247.897,615.397,247.897z M625.109,237.794c-0.113,0-0.228-0.039-0.321-0.117
					c-0.212-0.178-0.239-0.493-0.062-0.705c1.503-1.79,2.946-3.639,4.29-5.497c0.162-0.224,0.475-0.273,0.698-0.112
					c0.224,0.162,0.274,0.475,0.112,0.698c-1.357,1.878-2.816,3.746-4.335,5.555C625.394,237.733,625.252,237.794,625.109,237.794z
					 M633.31,226.435c-0.09,0-0.18-0.023-0.261-0.073c-0.235-0.144-0.31-0.452-0.166-0.688c1.221-1.996,2.362-4.044,3.394-6.087
					c0.124-0.247,0.426-0.346,0.672-0.221c0.246,0.125,0.345,0.425,0.221,0.672c-1.044,2.067-2.199,4.139-3.434,6.158
					C633.643,226.35,633.479,226.435,633.31,226.435z M639.616,213.926c-0.063,0-0.125-0.012-0.187-0.036
					c-0.256-0.103-0.38-0.394-0.277-0.65c0.501-1.249,0.973-2.513,1.4-3.757c0.321-0.933,0.624-1.873,0.909-2.818
					c0.08-0.264,0.362-0.413,0.623-0.334c0.265,0.08,0.414,0.358,0.334,0.623c-0.289,0.957-0.596,1.909-0.921,2.854
					c-0.433,1.26-0.91,2.54-1.418,3.804C640.002,213.807,639.815,213.926,639.616,213.926z M643.666,200.513
					c-0.034,0-0.068-0.003-0.103-0.01c-0.27-0.056-0.444-0.32-0.388-0.591c0.467-2.265,0.841-4.579,1.11-6.879
					c0.033-0.274,0.274-0.474,0.556-0.439c0.274,0.032,0.47,0.281,0.438,0.555c-0.273,2.329-0.651,4.672-1.125,6.965
					C644.105,200.351,643.897,200.513,643.666,200.513z M645.298,186.599c-0.005,0-0.01,0-0.015,0
					c-0.276-0.008-0.493-0.239-0.485-0.515c0.024-0.817,0.037-1.635,0.037-2.453c0.001-1.5-0.041-3.019-0.125-4.515
					c-0.016-0.275,0.195-0.512,0.471-0.527c0.306-0.011,0.513,0.196,0.527,0.471c0.085,1.515,0.128,3.053,0.127,4.571
					c0,0.827-0.013,1.655-0.037,2.482C645.79,186.384,645.567,186.599,645.298,186.599z M320.165,179.006
					c-0.239,0-0.451-0.172-0.493-0.417c-0.39-2.298-0.676-4.655-0.85-7.006c-0.021-0.275,0.186-0.515,0.461-0.536
					c0.278-0.02,0.515,0.187,0.536,0.462c0.172,2.32,0.455,4.646,0.839,6.913c0.046,0.272-0.137,0.53-0.41,0.577
					C320.22,179.004,320.192,179.006,320.165,179.006z M644.514,172.61c-0.244,0-0.458-0.18-0.494-0.429
					c-0.327-2.29-0.761-4.593-1.288-6.848c-0.063-0.269,0.104-0.538,0.373-0.601c0.278-0.063,0.538,0.105,0.602,0.373
					c0.533,2.282,0.972,4.615,1.304,6.934c0.039,0.273-0.151,0.527-0.424,0.566C644.561,172.609,644.537,172.61,644.514,172.61z
					 M319.123,165.038c-0.003,0-0.006,0-0.009,0c-0.276-0.005-0.496-0.233-0.491-0.509c0.041-2.339,0.19-4.709,0.441-7.042
					c0.029-0.274,0.267-0.479,0.551-0.443c0.275,0.029,0.473,0.276,0.443,0.551c-0.248,2.304-0.395,4.643-0.435,6.953
					C319.618,164.82,319.395,165.038,319.123,165.038z M641.319,158.972c-0.21,0-0.405-0.133-0.475-0.343
					c-0.209-0.631-0.425-1.259-0.649-1.884c-0.577-1.607-1.198-3.16-1.846-4.616c-0.112-0.252,0.002-0.548,0.254-0.66
					c0.251-0.112,0.548,0.001,0.66,0.254c0.657,1.478,1.287,3.054,1.873,4.684c0.227,0.633,0.446,1.269,0.657,1.907
					c0.087,0.262-0.056,0.545-0.317,0.632C641.424,158.964,641.371,158.972,641.319,158.972z M320.622,151.11
					c-0.032,0-0.065-0.003-0.098-0.01c-0.271-0.054-0.447-0.317-0.393-0.588c0.457-2.301,1.022-4.607,1.68-6.852
					c0.078-0.265,0.356-0.417,0.621-0.339c0.265,0.078,0.417,0.355,0.339,0.621c-0.65,2.217-1.208,4.493-1.66,6.766
					C321.064,150.945,320.855,151.11,320.622,151.11z M635.563,146.214c-0.168,0-0.331-0.085-0.426-0.238
					c-1.257-2.045-2.636-3.92-4.098-5.576c-0.183-0.207-0.163-0.523,0.044-0.706c0.205-0.182,0.523-0.163,0.706,0.044
					c1.5,1.699,2.913,3.621,4.199,5.714c0.145,0.235,0.071,0.543-0.164,0.688C635.743,146.19,635.652,146.214,635.563,146.214z
					 M324.56,137.666c-0.061,0-0.123-0.011-0.183-0.035c-0.257-0.101-0.383-0.391-0.282-0.648c0.86-2.188,1.828-4.356,2.876-6.444
					c0.124-0.246,0.424-0.347,0.671-0.222c0.247,0.124,0.346,0.424,0.222,0.671c-1.035,2.06-1.99,4.2-2.839,6.361
					C324.948,137.546,324.759,137.666,324.56,137.666z M626.285,135.807c-0.106,0-0.212-0.033-0.303-0.102
					c-1.783-1.357-3.756-2.588-5.861-3.661c-0.246-0.125-0.345-0.426-0.219-0.672c0.125-0.248,0.429-0.341,0.672-0.219
					c2.16,1.1,4.183,2.363,6.014,3.756c0.22,0.167,0.263,0.481,0.095,0.701C626.585,135.739,626.435,135.807,626.285,135.807z
					 M613.883,129.401c-0.053,0-0.107-0.008-0.16-0.026c-2.09-0.707-4.284-1.313-6.707-1.855c-0.269-0.06-0.438-0.327-0.379-0.597
					c0.061-0.269,0.325-0.439,0.598-0.379c2.457,0.549,4.685,1.165,6.809,1.883c0.262,0.088,0.402,0.372,0.313,0.634
					C614.286,129.27,614.092,129.401,613.883,129.401z M600.229,126.267c-0.024,0-0.05-0.002-0.074-0.005
					c-2.084-0.31-4.354-0.594-6.941-0.868c-0.274-0.029-0.474-0.275-0.444-0.55s0.275-0.474,0.55-0.444
					c2.601,0.275,4.885,0.561,6.982,0.873c0.273,0.041,0.462,0.295,0.421,0.568C600.686,126.089,600.473,126.267,600.229,126.267z
					 M330.851,125.151c-0.09,0-0.182-0.024-0.265-0.076c-0.234-0.146-0.305-0.455-0.159-0.689c1.25-1.999,2.604-3.95,4.025-5.799
					c0.169-0.218,0.482-0.26,0.701-0.092c0.219,0.169,0.26,0.482,0.092,0.701c-1.401,1.824-2.737,3.748-3.97,5.72
					C331.181,125.068,331.018,125.151,330.851,125.151z M586.282,124.731c-0.016,0-0.03,0-0.046-0.002l-1.035-0.092
					c-1.998-0.178-3.987-0.355-5.954-0.549c-0.275-0.027-0.476-0.272-0.449-0.547c0.028-0.274,0.276-0.473,0.547-0.448
					c1.965,0.194,3.95,0.371,5.945,0.548l1.036,0.092c0.274,0.024,0.478,0.268,0.453,0.543
					C586.756,124.536,586.538,124.731,586.282,124.731z M572.331,123.287c-0.023,0-0.045-0.001-0.067-0.004
					c-2.277-0.306-4.615-0.663-6.949-1.061c-0.273-0.046-0.455-0.305-0.409-0.577c0.048-0.272,0.312-0.455,0.577-0.409
					c2.322,0.396,4.648,0.751,6.914,1.055c0.273,0.037,0.466,0.289,0.429,0.562C572.792,123.104,572.577,123.287,572.331,123.287z
					 M558.506,120.938c-0.033,0-0.067-0.003-0.101-0.01c-2.23-0.453-4.541-0.958-6.865-1.5c-0.269-0.063-0.436-0.331-0.374-0.6
					c0.063-0.269,0.332-0.436,0.601-0.374c2.315,0.54,4.616,1.042,6.838,1.494c0.271,0.055,0.445,0.319,0.391,0.589
					C558.946,120.774,558.738,120.938,558.506,120.938z M544.843,117.765c-0.041,0-0.083-0.005-0.125-0.016
					c-2.192-0.567-4.475-1.183-6.781-1.831c-0.267-0.075-0.421-0.351-0.347-0.617c0.075-0.266,0.353-0.422,0.616-0.346
					c2.301,0.646,4.576,1.26,6.762,1.826c0.268,0.069,0.428,0.342,0.359,0.609C545.269,117.615,545.065,117.765,544.843,117.765z
					 M339.392,114.047c-0.123,0-0.245-0.045-0.342-0.135c-0.202-0.188-0.212-0.505-0.023-0.706c1.595-1.703,3.296-3.359,5.057-4.923
					c0.205-0.184,0.522-0.165,0.706,0.042c0.183,0.207,0.165,0.522-0.042,0.706c-1.738,1.543-3.417,3.178-4.991,4.858
					C339.658,113.994,339.525,114.047,339.392,114.047z M531.335,113.98c-0.047,0-0.096-0.007-0.144-0.021
					c-2.241-0.67-4.479-1.357-6.712-2.058c-0.264-0.083-0.41-0.363-0.328-0.627c0.084-0.264,0.365-0.41,0.627-0.328
					c2.229,0.699,4.463,1.385,6.7,2.054c0.265,0.079,0.415,0.357,0.336,0.622C531.749,113.84,531.551,113.98,531.335,113.98z
					 M517.947,109.793c-0.051,0-0.103-0.008-0.154-0.024c-2.226-0.721-4.448-1.45-6.669-2.184c-0.262-0.086-0.404-0.369-0.317-0.631
					c0.086-0.263,0.365-0.407,0.632-0.318c2.219,0.733,4.439,1.461,6.663,2.182c0.263,0.085,0.406,0.367,0.321,0.63
					C518.354,109.658,518.158,109.793,517.947,109.793z M504.626,105.399c-0.053,0-0.106-0.008-0.158-0.025l-6.654-2.214
					c-0.263-0.087-0.404-0.37-0.317-0.632c0.086-0.262,0.37-0.404,0.632-0.317l6.656,2.214c0.262,0.087,0.403,0.371,0.316,0.633
					C505.03,105.267,504.835,105.399,504.626,105.399z M349.858,104.738c-0.153,0-0.304-0.07-0.402-0.202
					c-0.165-0.222-0.118-0.535,0.104-0.699c1.861-1.382,3.825-2.714,5.834-3.96c0.235-0.145,0.543-0.073,0.688,0.161
					c0.146,0.235,0.073,0.543-0.161,0.688c-1.987,1.232-3.927,2.549-5.766,3.914C350.066,104.706,349.961,104.738,349.858,104.738z
					 M491.309,100.993c-0.051,0-0.104-0.008-0.154-0.024c-2.221-0.723-4.446-1.438-6.676-2.143
					c-0.264-0.083-0.409-0.364-0.326-0.628c0.084-0.264,0.364-0.408,0.627-0.327c2.233,0.705,4.461,1.422,6.684,2.146
					c0.263,0.085,0.406,0.368,0.321,0.63C491.715,100.858,491.52,100.993,491.309,100.993z M361.756,97.345
					c-0.181,0-0.356-0.099-0.445-0.271c-0.126-0.246-0.03-0.547,0.215-0.674c2.056-1.062,4.202-2.071,6.377-2.999
					c0.254-0.109,0.548,0.01,0.656,0.264c0.108,0.254-0.01,0.548-0.264,0.656c-2.153,0.918-4.276,1.916-6.31,2.967
					C361.912,97.327,361.833,97.345,361.756,97.345z M477.929,96.776c-0.048,0-0.097-0.007-0.145-0.021
					c-2.235-0.675-4.477-1.335-6.722-1.974c-0.266-0.076-0.42-0.352-0.344-0.618c0.075-0.266,0.347-0.421,0.617-0.344
					c2.251,0.641,4.496,1.302,6.737,1.979c0.265,0.08,0.414,0.359,0.334,0.623C478.342,96.637,478.144,96.776,477.929,96.776z
					 M464.435,92.943c-0.042,0-0.085-0.005-0.128-0.017c-2.304-0.607-4.588-1.182-6.789-1.709c-0.269-0.064-0.435-0.334-0.37-0.603
					c0.064-0.268,0.332-0.434,0.603-0.37c2.209,0.528,4.501,1.105,6.812,1.714c0.267,0.07,0.426,0.344,0.355,0.611
					C464.86,92.794,464.657,92.943,464.435,92.943z M374.639,91.838c-0.207,0-0.4-0.129-0.472-0.336
					c-0.091-0.261,0.047-0.546,0.308-0.636c2.185-0.759,4.449-1.462,6.727-2.09c0.266-0.074,0.542,0.083,0.615,0.349
					c0.073,0.266-0.083,0.541-0.35,0.615c-2.258,0.623-4.5,1.319-6.665,2.071C374.749,91.83,374.693,91.838,374.639,91.838z
					 M450.794,89.691c-0.034,0-0.069-0.003-0.104-0.011c-2.316-0.488-4.627-0.938-6.867-1.339c-0.272-0.049-0.453-0.309-0.404-0.58
					c0.048-0.272,0.313-0.454,0.58-0.404c2.25,0.402,4.571,0.855,6.898,1.345c0.27,0.057,0.442,0.322,0.386,0.592
					C451.232,89.529,451.024,89.691,450.794,89.691z M388.149,88.105c-0.232,0-0.439-0.162-0.489-0.397
					c-0.057-0.271,0.116-0.536,0.387-0.592c2.274-0.479,4.606-0.897,6.931-1.246c0.274-0.034,0.527,0.147,0.568,0.42
					c0.041,0.273-0.147,0.528-0.42,0.569c-2.306,0.345-4.618,0.76-6.874,1.235C388.218,88.102,388.183,88.105,388.149,88.105z
					 M436.989,87.232c-0.025,0-0.048-0.001-0.072-0.005c-2.341-0.335-4.676-0.625-6.94-0.862c-0.274-0.028-0.475-0.274-0.445-0.549
					c0.028-0.276,0.273-0.476,0.549-0.445c2.276,0.237,4.625,0.529,6.979,0.866c0.272,0.039,0.463,0.292,0.424,0.566
					C437.447,87.052,437.233,87.232,436.989,87.232z M402.016,86.025c-0.255,0-0.473-0.195-0.497-0.454
					c-0.025-0.275,0.177-0.519,0.452-0.544c2.327-0.214,4.691-0.366,7.028-0.45c0.311-0.041,0.509,0.205,0.519,0.481
					c0.01,0.276-0.206,0.508-0.481,0.518c-2.319,0.084-4.665,0.234-6.974,0.447C402.047,86.025,402.031,86.025,402.016,86.025z
					 M423.041,85.786c-0.01,0-0.021,0-0.031-0.001c-2.344-0.146-4.694-0.238-6.984-0.274c-0.276-0.004-0.496-0.232-0.492-0.508
					c0.005-0.276,0.222-0.47,0.508-0.492c2.306,0.037,4.672,0.13,7.031,0.276c0.275,0.017,0.485,0.254,0.468,0.53
					C423.523,85.581,423.304,85.786,423.041,85.786z"/>
			</g>
		</g>
		<g>
			<g>
				<path style="fill:#55C1F2;" d="M502.455,291.614c-0.236,0-0.446-0.168-0.49-0.409c-0.051-0.272,0.129-0.532,0.4-0.582
					l3.443-0.638c0.267-0.054,0.532,0.129,0.582,0.4c0.051,0.271-0.129,0.532-0.4,0.582l-3.443,0.638
					C502.517,291.611,502.485,291.614,502.455,291.614z"/>
			</g>
		</g>
	</g>
	<g>
		<g>
			<path style="fill:#FFFFFF;" d="M64.5,155.5c-1.495,0-2.986-0.166-4.432-0.493c-0.27-0.061-0.439-0.329-0.378-0.598
				c0.061-0.269,0.33-0.439,0.598-0.378c2.202,0.499,4.534,0.6,6.777,0.296c0.274-0.039,0.525,0.155,0.563,0.429
				c0.037,0.273-0.155,0.525-0.429,0.563C66.311,155.439,65.402,155.5,64.5,155.5z M73.751,153.17c-0.178,0-0.35-0.095-0.44-0.263
				c-0.131-0.243-0.041-0.546,0.203-0.677c2.009-1.085,3.792-2.509,5.299-4.234c0.181-0.208,0.498-0.23,0.706-0.047
				c0.208,0.182,0.229,0.498,0.047,0.706c-1.586,1.815-3.463,3.314-5.578,4.456C73.913,153.151,73.831,153.17,73.751,153.17z
				 M53.775,152.288c-0.095,0-0.19-0.027-0.275-0.083c-2.009-1.326-3.747-2.984-5.166-4.928c-0.163-0.223-0.114-0.536,0.109-0.699
				c0.223-0.164,0.537-0.113,0.699,0.109c1.349,1.848,3,3.424,4.909,4.683c0.23,0.152,0.294,0.462,0.142,0.693
				C54.097,152.209,53.938,152.288,53.775,152.288z M82.763,142.851c-0.059,0-0.118-0.01-0.176-0.032
				c-0.258-0.097-0.389-0.385-0.292-0.644c0.8-2.131,1.206-4.377,1.206-6.675c0-0.276,0.224-0.5,0.5-0.5s0.5,0.224,0.5,0.5
				c0,2.419-0.427,4.783-1.269,7.027C83.156,142.727,82.965,142.851,82.763,142.851z M45.706,141.218
				c-0.219,0-0.42-0.145-0.482-0.367c-0.48-1.735-0.724-3.535-0.724-5.351c0-0.588,0.025-1.179,0.076-1.757
				c0.024-0.275,0.27-0.479,0.542-0.455c0.275,0.024,0.479,0.267,0.455,0.542c-0.048,0.549-0.072,1.111-0.072,1.67
				c0,1.726,0.231,3.436,0.688,5.085c0.074,0.266-0.083,0.542-0.349,0.615C45.795,141.212,45.75,141.218,45.706,141.218z
				 M83.678,132.453c-0.237,0-0.447-0.168-0.491-0.41c-0.413-2.247-1.222-4.38-2.404-6.34c-0.143-0.237-0.066-0.544,0.17-0.687
				c0.236-0.144,0.544-0.067,0.687,0.17c1.244,2.063,2.096,4.31,2.531,6.676c0.05,0.271-0.13,0.532-0.401,0.582
				C83.738,132.45,83.707,132.453,83.678,132.453z M46.91,127.571c-0.072,0-0.146-0.016-0.216-0.049
				c-0.249-0.12-0.354-0.418-0.234-0.667c1.04-2.165,2.449-4.111,4.188-5.782c0.198-0.192,0.515-0.186,0.707,0.014
				c0.191,0.199,0.185,0.516-0.014,0.707c-1.653,1.588-2.992,3.437-3.979,5.494C47.275,127.466,47.097,127.571,46.91,127.571z
				 M76.613,120.718c-0.109,0-0.218-0.036-0.311-0.108c-1.795-1.425-3.807-2.503-5.979-3.201c-0.263-0.085-0.408-0.366-0.323-0.629
				c0.085-0.263,0.368-0.405,0.629-0.323c2.287,0.735,4.405,1.869,6.295,3.37c0.216,0.172,0.252,0.486,0.081,0.703
				C76.907,120.653,76.761,120.718,76.613,120.718z M56.792,118.082c-0.194,0-0.378-0.113-0.459-0.302
				c-0.109-0.253,0.008-0.548,0.261-0.657c2.205-0.95,4.545-1.489,6.957-1.601c0.288-0.017,0.51,0.2,0.523,0.476
				c0.013,0.276-0.2,0.51-0.476,0.523c-2.291,0.107-4.514,0.619-6.608,1.52C56.925,118.069,56.858,118.082,56.792,118.082z"/>
		</g>
		<g>
			<path style="fill:#FFFFFF;" d="M678.717,282.452c-0.013,0-0.025,0-0.038-0.001c-2.423-0.182-4.735-0.85-6.873-1.986
				c-0.244-0.13-0.337-0.433-0.207-0.676c0.13-0.244,0.434-0.337,0.676-0.207c2.015,1.07,4.194,1.7,6.478,1.871
				c0.275,0.022,0.483,0.261,0.462,0.536C679.194,282.252,678.976,282.452,678.717,282.452z M685.606,281.554
				c-0.207,0-0.4-0.129-0.472-0.335c-0.092-0.261,0.046-0.546,0.307-0.637c2.152-0.752,4.096-1.923,5.776-3.481
				c0.2-0.188,0.518-0.178,0.706,0.026c0.189,0.202,0.177,0.518-0.026,0.706c-1.782,1.653-3.844,2.895-6.126,3.692
				C685.717,281.545,685.661,281.554,685.606,281.554z M666.694,276.082c-0.146,0-0.292-0.064-0.392-0.188
				c-1.514-1.901-2.596-4.051-3.218-6.389c-0.07-0.268,0.088-0.541,0.354-0.612c0.275-0.073,0.541,0.089,0.612,0.354
				c0.586,2.204,1.606,4.23,3.034,6.023c0.172,0.216,0.136,0.53-0.08,0.703C666.914,276.047,666.804,276.082,666.694,276.082z
				 M695.584,272.304c-0.067,0-0.135-0.014-0.2-0.042c-0.253-0.11-0.368-0.405-0.258-0.658c0.912-2.086,1.374-4.308,1.374-6.603
				c0-0.276,0.224-0.5,0.5-0.5c0.276,0,0.5,0.224,0.5,0.5c0,2.435-0.49,4.791-1.458,7.004
				C695.96,272.191,695.776,272.304,695.584,272.304z M696.898,263.648c-0.252,0-0.469-0.19-0.496-0.446
				c-0.245-2.27-0.946-4.428-2.086-6.411c-0.138-0.239-0.055-0.545,0.185-0.683c0.236-0.137,0.543-0.057,0.683,0.185
				c1.209,2.104,1.953,4.392,2.213,6.802c0.029,0.274-0.169,0.522-0.443,0.551C696.935,263.647,696.917,263.648,696.898,263.648z
				 M663.192,262.938c-0.025,0-0.051-0.002-0.076-0.006c-0.272-0.041-0.46-0.296-0.419-0.569c0.361-2.396,1.203-4.65,2.5-6.703
				c0.149-0.233,0.458-0.299,0.69-0.155c0.233,0.147,0.303,0.457,0.155,0.69c-1.223,1.934-2.016,4.06-2.358,6.318
				C663.648,262.76,663.435,262.938,663.192,262.938z M690.133,251.849c-0.105,0-0.209-0.032-0.299-0.099
				c-1.838-1.367-3.898-2.319-6.121-2.831c-0.269-0.062-0.437-0.33-0.375-0.599c0.062-0.269,0.327-0.436,0.6-0.376
				c2.359,0.543,4.544,1.553,6.494,3.003c0.221,0.165,0.268,0.479,0.103,0.7C690.435,251.779,690.285,251.849,690.133,251.849z
				 M670.452,251.433c-0.159,0-0.316-0.076-0.413-0.219c-0.155-0.229-0.097-0.54,0.132-0.695c2.008-1.365,4.233-2.282,6.614-2.725
				c0.274-0.051,0.533,0.129,0.583,0.4c0.051,0.271-0.128,0.532-0.399,0.583c-2.245,0.417-4.343,1.281-6.235,2.568
				C670.647,251.404,670.55,251.433,670.452,251.433z"/>
		</g>
		<g>
			<circle style="fill:#FFFFFF;" cx="548.5" cy="92.5" r="4.5"/>
		</g>
		<g>
			<circle style="fill:#FFFFFF;" cx="71" cy="106" r="5"/>
		</g>
		<g>
			<circle style="fill:#FFFFFF;" cx="687" cy="237" r="3"/>
		</g>
		<g>
			<circle style="fill:#FFFFFF;" cx="313.5" cy="114.5" r="5.5"/>
		</g>
	</g>
	<g>
		<path style="fill:#FFFFFF;" d="M689.273,216c-0.116-5.129-5.093-10.045-10.331-9.356c-2.56,0.337-4.848,1.722-7.308,2.503
			c-2.461,0.782-5.513,0.799-7.226-1.133c-0.987-1.113-1.327-2.656-2.149-3.897c-1.484-2.24-4.428-3.199-7.096-2.873
			c-2.668,0.326-5.087,1.741-7.19,3.415c-1.12,0.891-2.239,1.896-3.637,2.203c-2.336,0.513-4.645-1.114-6.047-3.052
			c-1.402-1.938-2.252-4.244-3.75-6.109c-4.03-5.016-12.368-5.305-17.28-1.148c-4.568,3.866-5.358,13.349-3.481,19.446H689.273z"/>
		<path style="fill:#FFFFFF;" d="M229.529,127c-1.942-4.889-8.117-9.477-12.956-8.23c-3.187,0.821-6.426,3.174-9.441,1.855
			c-3.261-1.426-3.59-6.049-6.21-8.458c-3.286-3.023-8.544-1.451-12.567,0.486c-4.023,1.937-8.86,4.076-12.692,1.783
			c-4.515-2.701-4.116-9.314-6.592-13.956c-3.634-6.814-13.483-8.2-20.367-4.701c-6.884,3.499-11.293,10.444-14.672,17.389
			c-1.737,3.57-4.482,7.898-8.383,7.16c-2.562-0.484-4.109-3.014-6.063-4.739c-3.615-3.191-9.405-3.589-13.423-0.924
			c-3.905,2.59-5.785,7.844-4.482,12.334H229.529z"/>
	</g>
	<g>
		<g>
			<g>
				<path style="fill:none;stroke:#74B2E8;stroke-width:2;stroke-linecap:round;stroke-linejoin:round;stroke-miterlimit:10;" d="
					M540.95,296.824c3.423-19.382,14.443-32.887,25.244-48.997c3.875-5.781,9.393-13.708,13.022-20.164
					c2.599,3.551,5.059,7.26,7.558,10.904c-1.388-5.899-2.845-11.795-4.022-17.744c1.289-2.967,2.901-6.087,3.917-9.122
					c7.16-21.391,9.328-40.603,1.435-61.904c23.582,31.496,37.015,73.84,26.865,112.646c-3.365,12.866-9.237,21.269-16.767,31.555
					c-2.681-4.943-5.625-9.45-8.504-14.17c1.22,6.26,2.426,12.56,4.087,18.689c-4.943,5.096-9.205,8.748-14.806,13.549
					c-12.339,10.575-21.322,22.757-24.98,39.053C542.596,335.051,537.528,316.207,540.95,296.824z"/>
			</g>
			<g>
				<path style="fill:#74B2E8;" d="M533.484,340.186c10.107-4.96,23.844-3.963,30.487-13.051c3.779-5.17,3.93-12.145,6.773-17.883
					c3.419-6.901,10.964-11.547,18.665-11.495c3.905,0.026,7.885,1.15,11.658,0.139c9.102-2.437,11.582-15.296,20.265-18.958
					c3.665-1.546,7.838-1.161,11.72-2.028c6.119-1.366,11.144-5.737,17.084-7.745c5.94-2.009,14.305-0.11,15.371,6.068
					c0.402,2.333-0.371,4.691-1.133,6.932c-1.924,5.656-3.848,11.312-5.773,16.968c-2.432,7.149-5.403,14.954-12.074,18.492
					c-6.236,3.308-14.462,2.087-19.957,6.518c-6.948,5.601-5.908,17.228-12.46,23.288c-7.965,7.367-23.162,2.97-29.562,11.731
					c-1.61,2.204-2.332,4.909-3.228,7.487c-4.675,13.449-15.732,25.14-29.658,28.106c-12.08,2.573-30.968-3.451-34.072-17.016
					C514.667,364.96,521.637,346,533.484,340.186z"/>
				<g>
					<g>
						<polygon style="fill:#121B46;" points="658.585,274.697 650.783,281.194 642.932,287.63 627.153,300.406 611.266,313.047 
							603.284,319.32 595.252,325.531 603.054,319.034 610.905,312.598 626.684,299.822 642.572,287.182 650.555,280.909 						"/>
					</g>
					<g>
						<path style="fill:#121B46;" d="M639.919,277.697c-0.475,1.551-1.026,3.07-1.589,4.584c-0.555,1.518-1.164,3.013-1.773,4.507
							c-0.626,1.488-1.253,2.976-1.934,4.441c-0.674,1.468-1.359,2.932-2.121,4.363c0.474-1.551,1.025-3.07,1.588-4.584
							c0.555-1.517,1.164-3.013,1.774-4.507c0.627-1.488,1.254-2.975,1.935-4.44C638.473,280.593,639.158,279.129,639.919,277.697z"
							/>
					</g>
					<g>
						<path style="fill:#121B46;" d="M650.585,304.031c-2.626,0.376-5.259,0.671-7.893,0.953c-2.634,0.284-5.273,0.5-7.909,0.754
							c-2.641,0.193-5.28,0.418-7.924,0.581c-2.644,0.162-5.289,0.312-7.941,0.379c2.626-0.378,5.259-0.672,7.893-0.954
							c2.634-0.282,5.273-0.501,7.909-0.752c2.642-0.191,5.28-0.419,7.924-0.58C645.289,304.249,647.933,304.099,650.585,304.031z"
							/>
					</g>
					<g>
						<path style="fill:#121B46;" d="M614.252,289.697c-0.45,2.235-0.979,4.449-1.52,6.659c-0.539,2.211-1.144,4.404-1.713,6.606
							c-0.627,2.187-1.223,4.382-1.88,6.561c-0.657,2.178-1.326,4.354-2.075,6.507c0.449-2.236,0.978-4.449,1.519-6.659
							c0.541-2.21,1.143-4.404,1.714-6.606c0.629-2.186,1.223-4.382,1.881-6.56C612.835,294.027,613.504,291.851,614.252,289.697z"
							/>
					</g>
					<g>
						<path style="fill:#121B46;" d="M619.585,328.031c-1.845-0.213-3.673-0.507-5.499-0.812c-1.828-0.297-3.644-0.652-5.46-1.008
							c-1.813-0.373-3.625-0.747-5.426-1.178c-1.802-0.424-3.602-0.859-5.386-1.376c1.845,0.212,3.673,0.506,5.5,0.811
							c1.828,0.298,3.644,0.653,5.46,1.009c1.812,0.374,3.625,0.748,5.425,1.18C616.002,327.079,617.802,327.515,619.585,328.031z"
							/>
					</g>
				</g>
			</g>
		</g>
		<g>
			<path style="fill:none;stroke:#74B2E8;stroke-width:2;stroke-linecap:round;stroke-linejoin:round;stroke-miterlimit:10;" d="
				M164.817,369.303c-3.369-14.259,1.871-31.402-7.74-42.461c-5.466-6.291-14.273-8.501-20.732-13.769
				c-7.767-6.335-11.48-17.253-9.185-27.01c1.164-4.948,3.741-9.673,3.55-14.753c-0.459-12.256-16.058-19.123-18.193-31.2
				c-0.901-5.098,0.795-10.282,0.819-15.459c0.037-8.16-4.055-15.801-4.885-23.919c-0.83-8.118,3.999-18.184,12.148-17.749
				c3.077,0.164,5.845,1.827,8.468,3.443c6.62,4.078,13.24,8.157,19.86,12.235c8.368,5.155,17.412,11.183,19.972,20.671
				c2.393,8.87-1.536,18.955,2.496,27.21c5.097,10.438,20.152,12.481,25.945,22.549c7.043,12.239-2.934,30.25,6.332,40.905
				c2.331,2.681,5.555,4.38,8.567,6.263c15.713,9.823,27.348,27.236,27.082,45.765c-0.231,16.072-13.34,38.297-31.451,38.31
				C190.809,400.349,168.766,386.019,164.817,369.303z"/>
			<g>
				<path style="fill:#74B2E8;" d="M192.865,347.974c-13.411-14.869-31.294-24.907-49.372-33.517
					c-6.487-3.089-13.096-6.069-19.334-9.611l-2.435,12.264l-2.895-15.514c-2.207-1.45-4.347-2.998-6.388-4.691
					c-14.386-11.931-22.949-30.581-22.62-49.268c-9.198,34.965-8.618,76.476,16.674,102.311c8.386,8.566,18.601,14.81,29.601,19.648
					l0.434-17.034l6.818,19.992c7.419,2.801,15.079,5.084,22.697,7.076c16.781,4.388,34.273,9.699,44.909,23.4
					C214.709,383.362,206.276,362.842,192.865,347.974z"/>
				<g>
					<path style="fill:#121B46;" d="M88.919,262.364c0.328,6.181,1.321,12.309,2.673,18.336c1.362,6.027,3.135,11.961,5.382,17.711
						c4.475,11.491,10.816,22.316,19.221,31.354c4.213,4.499,8.914,8.526,13.979,12.033c5.06,3.538,10.625,6.26,16.286,8.689
						c2.899,1.05,5.754,2.24,8.75,3.005c1.487,0.411,2.955,0.902,4.459,1.248l4.529,0.972l2.265,0.491l2.292,0.339l4.588,0.678
						c3.068,0.368,6.16,0.534,9.243,0.811c-3.085-0.216-6.184-0.321-9.263-0.628l-4.609-0.589l-2.305-0.295l-2.28-0.448
						l-4.558-0.922c-1.514-0.331-2.993-0.807-4.492-1.203c-3.019-0.736-5.903-1.899-8.832-2.924
						c-1.454-0.54-2.847-1.236-4.274-1.847l-2.125-0.953c-0.698-0.339-1.37-0.731-2.056-1.094c-1.358-0.752-2.747-1.452-4.08-2.248
						l-3.922-2.518c-5.12-3.518-9.879-7.562-14.144-12.087c-8.43-9.155-14.825-20.062-19.208-31.658
						C92.087,287.006,89.421,274.737,88.919,262.364z"/>
				</g>
			</g>
		</g>
	</g>
	<g>
		<g>
			<path style="fill:#FFFFFF;" d="M559.752,416.539h-370c-4.142,0-7.5-3.358-7.5-7.5v-240c0-4.142,3.358-7.5,7.5-7.5h370
				c4.142,0,7.5,3.358,7.5,7.5v240C567.252,413.181,563.894,416.539,559.752,416.539z"/>
			<path style="fill:#9CA7B0;" d="M563.585,289.039c0,4.05-3.283,7.333-7.333,7.333c-4.05,0-7.333-3.283-7.333-7.333
				c0-4.05,3.283-7.333,7.333-7.333C560.302,281.706,563.585,284.989,563.585,289.039z"/>
		</g>
		<g>
			<rect x="196.252" y="165.789" style="fill:#121B46;" width="349" height="246.5"/>
			<g>
				<g>
					<g>
						<g>
							<polygon style="fill:#FFFFFF;" points="479.522,379.306 472.522,379.306 472.522,377.306 477.522,377.306 477.522,372.306 
								479.522,372.306 							"/>
						</g>
						<g>
							<path style="fill:#FFFFFF;" d="M460.33,379.306h-12.192v-2h12.192V379.306z M435.945,379.306h-12.192v-2h12.192V379.306z
								 M411.561,379.306h-12.192v-2h12.192V379.306z M387.176,379.306h-12.192v-2h12.192V379.306z M362.792,379.306h-12.192v-2
								h12.192V379.306z M338.407,379.306h-12.192v-2h12.192V379.306z"/>
						</g>
						<g>
							<polygon style="fill:#FFFFFF;" points="314.023,379.306 307.023,379.306 307.023,372.306 309.023,372.306 309.023,377.306 
								314.023,377.306 							"/>
						</g>
						<g>
							<path style="fill:#FFFFFF;" d="M309.023,360.113h-2v-12.192h2V360.113z M309.023,335.729h-2v-12.192h2V335.729z
								 M309.023,311.344h-2v-12.192h2V311.344z M309.023,286.959h-2v-12.192h2V286.959z M309.023,262.575h-2v-12.192h2V262.575z
								 M309.023,238.191h-2v-12.192h2V238.191z"/>
						</g>
						<g>
							<polygon style="fill:#FFFFFF;" points="309.023,213.805 307.023,213.805 307.023,206.805 314.023,206.805 314.023,208.805 
								309.023,208.805 							"/>
						</g>
						<g>
							<path style="fill:#FFFFFF;" d="M460.331,208.805h-12.192v-2h12.192V208.805z M435.946,208.805h-12.192v-2h12.192V208.805z
								 M411.561,208.805h-12.192v-2h12.192V208.805z M387.177,208.805h-12.192v-2h12.192V208.805z M362.792,208.805H350.6v-2
								h12.192V208.805z M338.408,208.805h-12.192v-2h12.192V208.805z"/>
						</g>
						<g>
							<polygon style="fill:#FFFFFF;" points="479.522,213.805 477.522,213.805 477.522,208.805 472.522,208.805 472.522,206.805 
								479.522,206.805 							"/>
						</g>
						<g>
							<path style="fill:#FFFFFF;" d="M479.522,360.113h-2v-12.192h2V360.113z M479.522,335.729h-2v-12.192h2V335.729z
								 M479.522,311.344h-2v-12.192h2V311.344z M479.522,286.959h-2v-12.192h2V286.959z M479.522,262.575h-2v-12.192h2V262.575z
								 M479.522,238.19h-2v-12.192h2V238.19z"/>
						</g>
					</g>
					<g>
						<circle style="fill:#FDB32C;" cx="477.585" cy="207.407" r="21.5"/>
						<polygon style="fill:#FFFFFF;" points="488.765,204.845 480.147,204.845 480.147,196.227 475.023,196.227 475.023,204.845 
							466.405,204.845 466.405,209.969 475.023,209.969 475.023,218.587 480.147,218.587 480.147,209.969 488.765,209.969 						"/>
					</g>
					<g>
						<g>
							<circle style="fill:#FFFFFF;" cx="363.88" cy="265.03" r="10.186"/>
						</g>
						<path style="fill:#FFFFFF;" d="M450.894,347.266v-71.854c-3.762-2.188-8.25-3.194-12.613-2.885
							c-6.507,0.46-12.662,3.637-17.325,8.198c-3.486,3.41-6.174,7.535-9.276,11.297c-3.139,3.807-6.715,7.254-10.635,10.251
							c-2.047,1.565-4.243,3.034-6.737,3.681c-2.633,0.684-5.425,0.404-8.085-0.167c-5.839-1.253-11.29-3.854-16.959-5.73
							c-5.67-1.877-11.869-3.021-17.582-1.28c-6.985,2.129-11.866,8.041-16.031,14.202v34.287H450.894z"/>
					</g>
				</g>
				<g>
					<rect x="196.252" y="164.845" style="fill:#74B2E8;" width="66" height="247.833"/>
					<g>
						<g>
							<g>
								<g>
									<polygon style="fill:#FFFFFF;" points="254.549,227.165 252.47,227.165 252.47,226.571 253.955,226.571 253.955,225.086 
										254.549,225.086 									"/>
								</g>
								<g>
									<path style="fill:#FFFFFF;" d="M248.85,227.165h-3.62v-0.594h3.62V227.165z M241.61,227.165h-3.62v-0.594h3.62V227.165z
										 M234.37,227.165h-3.62v-0.594h3.62V227.165z M227.129,227.165h-3.62v-0.594h3.62V227.165z M219.889,227.165h-3.62v-0.594
										h3.62V227.165z M212.648,227.165h-3.62v-0.594h3.62V227.165z"/>
								</g>
								<g>
									<polygon style="fill:#FFFFFF;" points="205.409,227.165 203.33,227.165 203.33,225.086 203.924,225.086 203.924,226.571 
										205.409,226.571 									"/>
								</g>
								<g>
									<path style="fill:#FFFFFF;" d="M203.924,221.466h-0.594v-3.62h0.594V221.466z M203.924,214.226h-0.594v-3.62h0.594V214.226
										z M203.924,206.986h-0.594v-3.62h0.594V206.986z M203.924,199.745h-0.594v-3.62h0.594V199.745z M203.924,192.505h-0.594
										v-3.62h0.594V192.505z M203.924,185.264h-0.594v-3.62h0.594V185.264z"/>
								</g>
								<g>
									<polygon style="fill:#FFFFFF;" points="203.924,178.025 203.33,178.025 203.33,175.946 205.409,175.946 205.409,176.54 
										203.924,176.54 									"/>
								</g>
								<g>
									<path style="fill:#FFFFFF;" d="M248.851,176.54h-3.62v-0.594h3.62V176.54z M241.61,176.54h-3.62v-0.594h3.62V176.54z
										 M234.37,176.54h-3.62v-0.594h3.62V176.54z M227.129,176.54h-3.62v-0.594h3.62V176.54z M219.889,176.54h-3.62v-0.594h3.62
										V176.54z M212.649,176.54h-3.62v-0.594h3.62V176.54z"/>
								</g>
								<g>
									<polygon style="fill:#FFFFFF;" points="254.549,178.025 253.955,178.025 253.955,176.54 252.47,176.54 252.47,175.946 
										254.549,175.946 									"/>
								</g>
								<g>
									<path style="fill:#FFFFFF;" d="M254.549,221.467h-0.594v-3.62h0.594V221.467z M254.549,214.226h-0.594v-3.62h0.594V214.226
										z M254.549,206.986h-0.594v-3.62h0.594V206.986z M254.549,199.745h-0.594v-3.62h0.594V199.745z M254.549,192.505h-0.594
										v-3.62h0.594V192.505z M254.549,185.265h-0.594v-3.62h0.594V185.265z"/>
								</g>
							</g>
							<g>
								<g>
									<g>
										<path style="fill:#FFFFFF;" d="M223.085,192.95c0,1.715-1.39,3.105-3.105,3.105c-1.715,0-3.105-1.39-3.105-3.105
											c0-1.715,1.39-3.105,3.105-3.105C221.695,189.845,223.085,191.235,223.085,192.95z"/>
									</g>
								</g>
								<g>
									<path style="fill:#FFFFFF;" d="M246.504,218.016v-21.902c-1.147-0.667-2.515-0.974-3.845-0.88
										c-1.983,0.14-3.86,1.108-5.281,2.499c-1.063,1.039-1.882,2.297-2.828,3.443c-0.957,1.161-2.047,2.211-3.242,3.125
										c-0.624,0.477-1.293,0.925-2.054,1.122c-0.803,0.208-1.654,0.123-2.465-0.051c-1.78-0.382-3.441-1.175-5.17-1.747
										c-1.728-0.572-3.618-0.921-5.359-0.39c-2.129,0.649-3.617,2.451-4.886,4.329v10.451H246.504z"/>
								</g>
							</g>
						</g>
						<g>
							<g>
								<g>
									<polygon style="fill:#FFFFFF;" points="254.549,310.498 252.47,310.498 252.47,309.904 253.955,309.904 253.955,308.42 
										254.549,308.42 									"/>
								</g>
								<g>
									<path style="fill:#FFFFFF;" d="M248.85,310.498h-3.62v-0.594h3.62V310.498z M241.61,310.498h-3.62v-0.594h3.62V310.498z
										 M234.37,310.498h-3.62v-0.594h3.62V310.498z M227.129,310.498h-3.62v-0.594h3.62V310.498z M219.889,310.498h-3.62v-0.594
										h3.62V310.498z M212.648,310.498h-3.62v-0.594h3.62V310.498z"/>
								</g>
								<g>
									<polygon style="fill:#FFFFFF;" points="205.409,310.498 203.33,310.498 203.33,308.42 203.924,308.42 203.924,309.904 
										205.409,309.904 									"/>
								</g>
								<g>
									<path style="fill:#FFFFFF;" d="M203.924,304.8h-0.594v-3.62h0.594V304.8z M203.924,297.56h-0.594v-3.62h0.594V297.56z
										 M203.924,290.319h-0.594v-3.62h0.594V290.319z M203.924,283.079h-0.594v-3.62h0.594V283.079z M203.924,275.839h-0.594
										v-3.62h0.594V275.839z M203.924,268.598h-0.594v-3.62h0.594V268.598z"/>
								</g>
								<g>
									<polygon style="fill:#FFFFFF;" points="203.924,261.358 203.33,261.358 203.33,259.279 205.409,259.279 205.409,259.873 
										203.924,259.873 									"/>
								</g>
								<g>
									<path style="fill:#FFFFFF;" d="M248.851,259.873h-3.62v-0.594h3.62V259.873z M241.61,259.873h-3.62v-0.594h3.62V259.873z
										 M234.37,259.873h-3.62v-0.594h3.62V259.873z M227.129,259.873h-3.62v-0.594h3.62V259.873z M219.889,259.873h-3.62v-0.594
										h3.62V259.873z M212.649,259.873h-3.62v-0.594h3.62V259.873z"/>
								</g>
								<g>
									<polygon style="fill:#FFFFFF;" points="254.549,261.358 253.955,261.358 253.955,259.873 252.47,259.873 252.47,259.279 
										254.549,259.279 									"/>
								</g>
								<g>
									<path style="fill:#FFFFFF;" d="M254.549,304.799h-0.594v-3.62h0.594V304.799z M254.549,297.559h-0.594v-3.62h0.594V297.559
										z M254.549,290.319h-0.594v-3.62h0.594V290.319z M254.549,283.078h-0.594v-3.62h0.594V283.078z M254.549,275.838h-0.594
										v-3.62h0.594V275.838z M254.549,268.598h-0.594v-3.62h0.594V268.598z"/>
								</g>
							</g>
							<g>
								<g>
									<g>
										<path style="fill:#FFFFFF;" d="M223.085,276.283c0,1.715-1.39,3.105-3.105,3.105c-1.715,0-3.105-1.39-3.105-3.105
											c0-1.715,1.39-3.105,3.105-3.105C221.695,273.178,223.085,274.568,223.085,276.283z"/>
									</g>
								</g>
								<g>
									<path style="fill:#FFFFFF;" d="M246.504,301.35v-21.902c-1.147-0.667-2.515-0.974-3.845-0.88
										c-1.983,0.14-3.86,1.108-5.281,2.499c-1.063,1.039-1.882,2.297-2.828,3.444c-0.957,1.16-2.047,2.211-3.242,3.125
										c-0.624,0.477-1.293,0.925-2.054,1.122c-0.803,0.208-1.654,0.123-2.465-0.051c-1.78-0.382-3.441-1.175-5.17-1.747
										c-1.728-0.572-3.618-0.921-5.359-0.39c-2.129,0.649-3.617,2.451-4.886,4.329v10.452H246.504z"/>
								</g>
							</g>
						</g>
						<g>
							<g>
								<g>
									<polygon style="fill:#FFFFFF;" points="254.549,393.831 252.47,393.831 252.47,393.237 253.955,393.237 253.955,391.753 
										254.549,391.753 									"/>
								</g>
								<g>
									<path style="fill:#FFFFFF;" d="M248.85,393.831h-3.62v-0.594h3.62V393.831z M241.61,393.831h-3.62v-0.594h3.62V393.831z
										 M234.37,393.831h-3.62v-0.594h3.62V393.831z M227.129,393.831h-3.62v-0.594h3.62V393.831z M219.889,393.831h-3.62v-0.594
										h3.62V393.831z M212.648,393.831h-3.62v-0.594h3.62V393.831z"/>
								</g>
								<g>
									<polygon style="fill:#FFFFFF;" points="205.409,393.831 203.33,393.831 203.33,391.753 203.924,391.753 203.924,393.237 
										205.409,393.237 									"/>
								</g>
								<g>
									<path style="fill:#FFFFFF;" d="M203.924,388.133h-0.594v-3.62h0.594V388.133z M203.924,380.893h-0.594v-3.62h0.594V380.893
										z M203.924,373.652h-0.594v-3.62h0.594V373.652z M203.924,366.412h-0.594v-3.62h0.594V366.412z M203.924,359.172h-0.594
										v-3.62h0.594V359.172z M203.924,351.932h-0.594v-3.62h0.594V351.932z"/>
								</g>
								<g>
									<polygon style="fill:#FFFFFF;" points="203.924,344.691 203.33,344.691 203.33,342.612 205.409,342.612 205.409,343.206 
										203.924,343.206 									"/>
								</g>
								<g>
									<path style="fill:#FFFFFF;" d="M248.851,343.206h-3.62v-0.594h3.62V343.206z M241.61,343.206h-3.62v-0.594h3.62V343.206z
										 M234.37,343.206h-3.62v-0.594h3.62V343.206z M227.129,343.206h-3.62v-0.594h3.62V343.206z M219.889,343.206h-3.62v-0.594
										h3.62V343.206z M212.649,343.206h-3.62v-0.594h3.62V343.206z"/>
								</g>
								<g>
									<polygon style="fill:#FFFFFF;" points="254.549,344.691 253.955,344.691 253.955,343.206 252.47,343.206 252.47,342.612 
										254.549,342.612 									"/>
								</g>
								<g>
									<path style="fill:#FFFFFF;" d="M254.549,388.132h-0.594v-3.62h0.594V388.132z M254.549,380.892h-0.594v-3.62h0.594V380.892
										z M254.549,373.651h-0.594v-3.62h0.594V373.651z M254.549,366.411h-0.594v-3.62h0.594V366.411z M254.549,359.171h-0.594
										v-3.62h0.594V359.171z M254.549,351.931h-0.594v-3.62h0.594V351.931z"/>
								</g>
							</g>
							<g>
								<g>
									<g>
										<path style="fill:#FFFFFF;" d="M223.085,359.616c0,1.715-1.39,3.105-3.105,3.105c-1.715,0-3.105-1.39-3.105-3.105
											s1.39-3.105,3.105-3.105C221.695,356.512,223.085,357.902,223.085,359.616z"/>
									</g>
								</g>
								<g>
									<path style="fill:#FFFFFF;" d="M246.504,384.683v-21.902c-1.147-0.667-2.515-0.974-3.845-0.88
										c-1.983,0.14-3.86,1.109-5.281,2.499c-1.063,1.039-1.882,2.297-2.828,3.443c-0.957,1.161-2.047,2.211-3.242,3.125
										c-0.624,0.477-1.293,0.925-2.054,1.122c-0.803,0.208-1.654,0.123-2.465-0.051c-1.78-0.382-3.441-1.175-5.17-1.747
										c-1.728-0.572-3.618-0.921-5.359-0.39c-2.129,0.649-3.617,2.451-4.886,4.329v10.451H246.504z"/>
								</g>
							</g>
						</g>
						<g>
							<rect x="198.877" y="241.47" style="fill:#FFFFFF;" width="62" height="1"/>
						</g>
						<g>
							<rect x="198.877" y="328.47" style="fill:#FFFFFF;" width="62" height="1"/>
						</g>
					</g>
				</g>
			</g>
		</g>
	</g>
	<g>
		<g>
			<g>
				<g>
					<path style="fill:#FA9778;" d="M200.864,395.878c0,0,7.312,0.07,10.96-3.151c0.204-0.18,0.486-0.259,0.741-0.166
						c0.342,0.124,0.737,0.43,0.681,1.182c-0.016,0.219-0.142,0.416-0.324,0.539l-15.899,10.751
						c-0.596,0.403-1.397,0.31-1.882-0.222c-0.619-0.68-1.905-2.432-2.42-4.353l3.071-2.934L200.864,395.878z"/>
				</g>
				<path style="fill:#FDB32C;" d="M203.422,395.36c0,0-0.876,1.952-0.438,3.145c0.22,0.601-1.475,1.557-3.21,2.357
					c-1.768,0.815-3.716,1.084-5.661,0.996c-0.368-0.017-0.678,0.022-0.822,0.161c-0.506,0.488,1.82,3.988,2.702,3.832
					c0.812-0.144,16.303-10.391,18.753-12.015c0.19-0.126,0.245-0.374,0.124-0.567c-0.377-0.604-1.244-1.73-2.234-1.278
					C211.305,392.598,203.422,395.36,203.422,395.36z"/>
			</g>
			<g>
				<g>
					<path style="fill:#FA9778;" d="M140.284,410.861c0,0,6.018,4.154,10.845,3.529c0.27-0.035,0.547,0.058,0.707,0.278
						c0.214,0.295,0.369,0.769-0.098,1.36c-0.136,0.172-0.351,0.265-0.571,0.265h-19.192c-0.72,0-1.331-0.526-1.435-1.238
						c-0.132-0.91-0.216-3.082,0.433-4.962l4.188-0.71L140.284,410.861z"/>
				</g>
				<path style="fill:#FDB32C;" d="M142.527,411.565c0,0-1.791,1.171-2.066,2.411c-0.139,0.625-2.082,0.515-3.974,0.252
					c-1.928-0.268-3.714-1.093-5.303-2.216c-0.301-0.213-0.582-0.348-0.779-0.309c-0.689,0.138-0.62,4.34,0.207,4.684
					c0.761,0.317,19.333,0.05,22.271,0.006c0.228-0.003,0.408-0.183,0.411-0.411c0.008-0.712-0.114-2.128-1.192-2.282
					C150.655,413.493,142.527,411.565,142.527,411.565z"/>
			</g>
			<g>
				<path style="fill:#F46A2B;" d="M128.127,313.781c0,0-6.125,11.125-2.75,23.875c3.375,12.75,10.875,36.625,10.375,42.125
					s-5.875,30.5-5.875,30.5l12.375,1.125c0,0,10.75-30.5,10.875-43s-5.125-31.625-5.125-31.625L192.658,401l8.906-5.563
					c0,0-32.563-70.031-53.313-85.531L128.127,313.781z"/>
				<g>
					<g>
						<g>
							<path style="fill:#121B46;" d="M132.377,322.281c-0.009,1.409-0.301,2.776-0.722,4.102c-0.444,1.306-1.018,2.643-2.028,3.648
								c0.263-0.652,0.461-1.302,0.685-1.943l0.631-1.938C131.378,324.859,131.792,323.56,132.377,322.281z"/>
						</g>
						<g>
							<path style="fill:#121B46;" d="M128.502,320.531c0.042,2.462,0.247,4.92,0.619,7.348c0.39,2.42,0.94,4.835,1.947,7.047
								c0.942,2.346,1.393,4.767,1.927,7.178c0.516,2.413,0.961,4.838,1.375,7.267c1.683,9.714,3.08,19.467,4.336,29.241
								l0.007,0.053l-0.01,0.051c-0.939,5.062-1.938,10.113-2.919,15.168c-0.966,5.057-2.024,10.097-3.033,15.147
								c0.866-5.076,1.684-10.16,2.592-15.228c0.893-5.071,1.77-10.145,2.705-15.207l-0.003,0.103
								c-0.658-4.878-1.364-9.752-2.081-14.622c-0.701-4.873-1.433-9.741-2.242-14.595c-0.408-2.426-0.826-4.851-1.286-7.265
								c-0.482-2.398-0.907-4.859-1.764-7.108c-1.008-2.295-1.481-4.751-1.791-7.196
								C128.59,325.461,128.464,322.993,128.502,320.531z"/>
						</g>
					</g>
					<g>
						<path style="fill:#121B46;" d="M151.002,338.406l5.476,7.239l5.391,7.302c3.579,4.879,7.094,9.804,10.611,14.728
							c3.47,4.957,6.95,9.908,10.319,14.937c3.342,5.041,6.76,10.057,9.578,15.42l-1.144-1.959
							c-0.396-0.643-0.819-1.271-1.227-1.907c-0.81-1.276-1.681-2.513-2.529-3.764c-1.694-2.504-3.411-4.993-5.154-7.464
							c-3.465-4.957-6.938-9.909-10.455-14.83l-10.466-14.825l-5.22-7.423L151.002,338.406z"/>
					</g>
				</g>
			</g>
		</g>
		<g>
			<g>
				<path style="fill:#FA9778;" d="M185.556,323.038c0.324-0.421,1.709-0.204,2.396,0.029c0.144,0.049,0.29-0.031,0.318-0.183
					c0.056-0.298,0.01-0.773-0.696-1.066c-0.911-0.377-2.719-1.083-5.073-1.102c-0.816-0.826-2.067-2.094-3.647-3.702
					c-1.148,1.841-2.294,3.683-3.44,5.525c1.783,0.901,3.616,1.714,5.488,2.439c1.097,1.796,2.954,4.62,4.294,5.516
					c0.129,0.086,0.279-0.002,0.271-0.158c-0.016-0.328-0.228-1.003-1.197-2.317c0,0,2.677,2.199,3.3,2.137
					c0.622-0.061-2.384-3.339-2.384-3.339s3.273,2.151,3.774,1.876c0.501-0.275-2.85-3.155-2.85-3.155s3.5,2.022,3.619,1.713
					C190.028,326.486,185.19,323.513,185.556,323.038z"/>
				<path style="fill:#FDB32C;" d="M137.147,287.038c0,0,11.457,17.889,21.601,25.961c10.144,8.073,16.712,14.347,19.08,13.462
					c2.368-0.885,4.581-6.721,4.581-6.721s-26.366-26.74-29.57-30.406c-3.204-3.665-8.139-10.67-13.512-8.892
					C133.954,282.221,137.147,287.038,137.147,287.038z"/>
			</g>
			<g>
				<g>
					<path style="fill:#FA9778;" d="M124.294,282.614c1.175-4.277-0.921-13.534-1.216-14.573c-0.012-0.036-0.02-0.068-0.032-0.104
						l11.663,4.989c-0.151,0.328-0.208,0.757-0.201,1.246l0,0.004c0.008,0.991,0.283,2.223,0.603,3.338
						c0.471,1.63,1.044,3.003,1.044,3.003L124.294,282.614z"/>
					<path style="fill:#FA7C55;" d="M135.111,277.514c-5.894,1.403-9.696-5.406-9.835-5.66c1.293,1.632,2.989,2.344,4.598,2.597
						c1.981,0.316,3.828-0.063,4.599-0.262c0.012-0.005,0.024-0.007,0.036-0.012C134.516,275.167,134.79,276.399,135.111,277.514z"
						/>
				</g>
				<path style="fill:#FDB32C;" d="M123.5,277.112c-0.351,0.685-0.736,1.84-0.339,3.181c0.256,0.862-0.048,1.808-0.805,2.294
					c-1.088,0.7-2.457,1.888-3.105,3.693c-1.167,3.25,1.167,8.5,2.833,11.417c1.667,2.917,5.083,14.833,4.25,16.75
					c-0.833,1.917-1.417,5.167-0.667,6c0.75,0.833,23.917-6.833,24.75-8.25c0.833-1.417-2.333-5.167-2-6.833
					c0.333-1.667-0.083-17.25-1-19.833c-0.917-2.583-4.083-5.583-9.667-6.083c0,0-0.375-2.998-2.617-4.161
					c-0.243-0.126-0.527-0.155-0.798-0.122l-9.733,1.198C124.137,276.421,123.714,276.693,123.5,277.112z"/>
			</g>
			<g>
				<g>
					<g>
						
							<rect x="137.718" y="275.449" transform="matrix(0.9961 -0.0885 0.0885 0.9961 -26.2732 15.9352)" style="fill:#FFFFFF;" width="57.834" height="57.834"/>
					</g>
					<g>
						<defs>
							
								<rect id="SVGID_1_" x="137.718" y="275.449" transform="matrix(0.9961 -0.0885 0.0885 0.9961 -26.2732 15.9352)" width="57.834" height="57.834"/>
						</defs>
						<clipPath id="SVGID_00000096752223389090980190000008286280859025960328_">
							<use xlink:href="#SVGID_1_"  style="overflow:visible;"/>
						</clipPath>
						<g style="clip-path:url(#SVGID_00000096752223389090980190000008286280859025960328_);">
							<g>
								<path style="fill:#9ED2FF;" d="M162.515,329.594c0.579-2.574,2.326-4.906,4.729-5.996c1.613-0.732,3.449-0.904,5.015-1.732
									c1.656-0.876,2.906-2.487,3.343-4.309c0.328-1.367,0.213-2.8,0.387-4.195c0.355-2.85,2.239-5.701,5.047-6.306
									c1.553-0.335,3.212,0.034,4.734-0.425c1.885-0.569,3.161-2.264,4.456-3.747c0.664-0.76,1.58-1.555,2.556-1.299
									c0.509,0.133,0.912,0.544,1.147,1.016c0.563,1.134,0.239,2.5-0.236,3.673c-0.474,1.173-1.099,2.336-1.119,3.601
									c-0.018,1.148,0.466,2.234,0.806,3.331c0.961,3.107,0.625,6.849-1.72,9.101c-1.496,1.437-3.562,2.072-5.432,2.971
									c-1.87,0.899-3.744,2.322-4.089,4.368c-0.175,1.036,0.073,2.096,0.035,3.146c-0.096,2.664-2.043,4.97-4.352,6.301
									c-3.558,2.05-8.11,2.038-11.776,0.271C162.479,337.646,161.686,333.279,162.515,329.594z"/>
								<g>
									<g>
										<path style="fill:#121B46;" d="M191.877,303.406c-0.781,1.678-1.696,3.28-2.596,4.888c-0.9,1.609-1.852,3.186-2.806,4.762
											c-0.969,1.567-1.94,3.132-2.961,4.667c-1.015,1.538-2.04,3.07-3.137,4.558c0.832-1.651,1.734-3.258,2.646-4.86
											c0.905-1.605,1.859-3.181,2.813-4.756c0.969-1.566,1.938-3.132,2.954-4.67C189.793,306.45,190.83,304.926,191.877,303.406
											z"/>
									</g>
									<g>
										<path style="fill:#121B46;" d="M192.252,312.781c-1.027,0.274-2.049,0.321-3.07,0.312c-1.021-0.031-2.04-0.12-3.055-0.437
											c1.027-0.276,2.049-0.322,3.07-0.312C190.218,312.376,191.237,312.465,192.252,312.781z"/>
									</g>
									<g>
										<path style="fill:#121B46;" d="M180.127,309.156c0.816,1.284,1.421,2.65,1.974,4.036c0.532,1.394,1.01,2.809,1.276,4.308
											c-0.818-1.283-1.423-2.649-1.974-4.036C180.872,312.069,180.394,310.653,180.127,309.156z"/>
									</g>
								</g>
							</g>
							<g>
								<path style="fill:#9ED2FF;" d="M158.76,339.643c-2.249-1.38-3.89-3.788-4.144-6.414c-0.171-1.763,0.26-3.556-0.017-5.305
									c-0.294-1.85-1.414-3.554-2.996-4.557c-1.188-0.753-2.581-1.107-3.845-1.723c-2.582-1.258-4.671-3.962-4.335-6.815
									c0.186-1.578,1.071-3.029,1.129-4.617c0.071-1.968-1.12-3.723-2.105-5.429c-0.505-0.874-0.96-1.998-0.403-2.839
									c0.291-0.439,0.81-0.687,1.332-0.756c1.255-0.166,2.443,0.583,3.4,1.411c0.957,0.828,1.855,1.796,3.046,2.223
									c1.081,0.388,2.265,0.281,3.413,0.315c3.251,0.095,6.683,1.623,8.056,4.571c0.876,1.881,0.809,4.041,1.055,6.101
									c0.247,2.06,0.987,4.294,2.811,5.282c0.924,0.5,2.007,0.609,2.989,0.985c2.49,0.953,4.042,3.54,4.555,6.156
									c0.789,4.029-0.694,8.333-3.552,11.231C166.368,342.281,161.979,341.619,158.76,339.643z"/>
								<g>
									<g>
										<path style="fill:#121B46;" d="M144.377,303.281c1.201,1.486,2.333,3.018,3.456,4.557c1.13,1.534,2.21,3.102,3.291,4.669
											c1.066,1.578,2.131,3.156,3.147,4.767c1.023,1.607,2.036,3.221,2.98,4.881c-1.202-1.485-2.334-3.017-3.457-4.556
											c-1.129-1.535-2.21-3.102-3.29-4.67c-1.065-1.578-2.13-3.157-3.146-4.768
											C146.335,306.555,145.322,304.941,144.377,303.281z"/>
									</g>
									<g>
										<path style="fill:#121B46;" d="M153.127,306.531c0.13,1.423,0.034,2.82-0.117,4.21c-0.174,1.388-0.404,2.769-0.862,4.123
											c-0.132-1.423-0.035-2.82,0.117-4.21C152.44,309.266,152.671,307.885,153.127,306.531z"/>
									</g>
									<g>
										<path style="fill:#121B46;" d="M147.752,318.406c1.486,0.09,2.913,0.4,4.326,0.763c1.407,0.385,2.799,0.826,4.133,1.487
											c-1.486-0.088-2.913-0.398-4.326-0.763C150.478,319.506,149.086,319.066,147.752,318.406z"/>
									</g>
								</g>
							</g>
							<g>
								<path style="fill:#74B2E8;" d="M157.997,332.932c-1.484-2.885-1.674-6.463-0.266-9.386c0.945-1.963,2.542-3.573,3.366-5.589
									c0.872-2.133,0.78-4.638-0.244-6.702c-0.769-1.549-2.007-2.81-2.943-4.264c-1.913-2.97-2.384-7.145-0.211-9.931
									c1.202-1.541,3.058-2.501,4.131-4.134c1.33-2.024,1.197-4.629,1.25-7.051c0.027-1.241,0.265-2.713,1.387-3.242
									c0.586-0.276,1.29-0.206,1.883,0.054c1.425,0.626,2.197,2.171,2.675,3.652c0.478,1.481,0.805,3.071,1.784,4.28
									c0.889,1.098,2.202,1.741,3.387,2.508c3.357,2.173,5.992,5.969,5.555,9.944c-0.279,2.536-1.727,4.764-2.782,7.088
									c-1.055,2.323-1.701,5.145-0.413,7.347c0.652,1.116,1.721,1.921,2.514,2.941c2.01,2.59,1.992,6.3,0.862,9.378
									c-1.74,4.74-6.045,8.319-10.898,9.543C164.313,340.558,160.121,337.062,157.997,332.932z"/>
								<g>
									<g>
										<path style="fill:#121B46;" d="M165.377,285.281c0.56,3.88,1.038,7.768,1.504,11.658l1.306,11.678l1.133,11.696
											c0.346,3.902,0.681,7.805,0.932,11.717c-0.561-3.88-1.039-7.768-1.506-11.658l-1.304-11.679l-1.132-11.697
											C165.964,293.096,165.629,289.193,165.377,285.281z"/>
									</g>
									<g>
										<path style="fill:#121B46;" d="M172.127,293.156c-0.55,1.718-1.302,3.332-2.104,4.921
											c-0.822,1.578-1.695,3.131-2.771,4.579c0.549-1.719,1.301-3.333,2.104-4.921
											C170.179,296.157,171.052,294.604,172.127,293.156z"/>
									</g>
									<g>
										<path style="fill:#121B46;" d="M158.252,302.781c1.835,1.149,3.524,2.472,5.178,3.837c1.639,1.383,3.242,2.81,4.697,4.413
											c-1.836-1.147-3.525-2.47-5.178-3.837C161.311,305.809,159.709,304.382,158.252,302.781z"/>
									</g>
									<g>
										<path style="fill:#121B46;" d="M176.377,308.656c-0.431,1.374-0.938,2.716-1.456,4.052
											c-0.51,1.34-1.074,2.656-1.639,3.973c-0.581,1.309-1.163,2.618-1.798,3.903c-0.628,1.288-1.267,2.572-1.983,3.822
											c0.43-1.375,0.937-2.716,1.454-4.053c0.511-1.34,1.075-2.656,1.64-3.972c0.582-1.309,1.163-2.617,1.799-3.902
											C175.023,311.19,175.662,309.906,176.377,308.656z"/>
									</g>
									<g>
										<path style="fill:#121B46;" d="M160.252,323.281c1.818,0.948,3.504,2.081,5.157,3.259c1.64,1.196,3.246,2.438,4.718,3.866
											c-1.82-0.947-3.505-2.08-5.157-3.259C163.331,325.95,161.725,324.707,160.252,323.281z"/>
									</g>
								</g>
							</g>
						</g>
					</g>
				</g>
				<g>
					<path style="fill:#FA9778;" d="M159.54,330.888c0.297-0.441,1.693-0.313,2.393-0.125c0.147,0.04,0.287-0.049,0.306-0.203
						c0.037-0.301-0.039-0.772-0.762-1.019c-0.934-0.318-2.783-0.907-5.135-0.775c-0.687-0.612-1.679-1.496-2.897-2.585
						c-1.295,1.639-2.58,3.285-3.845,4.945c1.771,0.747,3.58,1.42,5.423,2.001c1.21,1.722,3.242,4.417,4.635,5.225
						c0.134,0.078,0.278-0.019,0.261-0.174c-0.037-0.327-0.292-0.986-1.342-2.236c0,0,2.813,2.023,3.43,1.922
						c0.617-0.101-2.593-3.18-2.593-3.18s3.404,1.937,3.886,1.631c0.483-0.306-3.046-2.966-3.046-2.966s3.622,1.794,3.721,1.478
						C164.223,334.042,159.205,331.386,159.54,330.888z"/>
					<g>
						<path style="fill:#FDB32C;" d="M130.269,320.009c-0.861-0.76-1.525-1.701-1.95-2.767c-1.949-4.892-8.745-22.237-8.816-26.377
							c-0.083-4.833,3.25-6.917,5.583-7.583c2.333-0.667,5.833,3.5,6.667,6.333c0.833,2.833,7.167,22.5,7.167,22.5l17.75,15.75
							c0,0-5,10.083-6.833,9.917c-1.833-0.167-3.167-6.583-3.167-6.583S134.819,324.024,130.269,320.009z"/>
						<g>
							<path style="fill:#121B46;" d="M126.393,312.375c0,0,0.443,4.74,3.526,7.323c0,0-1.917,0.667-2.917,0.75
								C126.002,320.531,126.393,312.375,126.393,312.375z"/>
							<g>
								<polygon style="fill:#121B46;" points="135.752,310.531 139.327,312.338 138.81,312.855 137.002,309.281 139.444,312.456 
									141.168,314.697 138.927,312.973 								"/>
							</g>
							<g>
								<path style="fill:#121B46;" d="M125.502,283.156c1.284-0.274,2.687-0.001,3.837,0.736c0.574,0.369,1.064,0.885,1.393,1.48
									c0.364,0.579,0.485,1.266,0.52,1.91c-0.32-0.577-0.606-1.124-1.004-1.581c-0.384-0.46-0.813-0.871-1.321-1.182
									c-0.493-0.331-1.04-0.587-1.613-0.809C126.737,283.5,126.138,283.304,125.502,283.156z"/>
							</g>
						</g>
					</g>
				</g>
			</g>
		</g>
		<g>
			<g>
				<path style="fill:#FA9778;" d="M139.77,269.739c-0.52,2.199-3.4,3.837-5.397,4.481c-2.566,0.833-5.281,0.429-7.525-1.056
					c-1.782-1.184-3.049-2.983-3.726-5.009c-0.462,0.091-1.139,0.054-1.291,0.012c-0.619-0.161-1.225-0.594-1.621-1.081
					c-0.483-0.59-0.726-1.386-0.573-2.129c0.19-0.932,1.077-1.762,2.063-1.626c0.066,0.008,0.173,0.037,0.293,0.078
					c-0.474-3.136-0.384-6.643,1.601-8.784c4.274-4.613,11.198-3.911,13.034-0.375c1.423,2.748,2.183,6.036,2.657,9.266
					c0.202,1.378,0.351,2.748,0.479,4.056c0.017,0.136,0.029,0.272,0.041,0.408C139.861,268.568,139.906,269.166,139.77,269.739z"/>
				<g>
					<g>
						<path style="fill:#FA7C55;" d="M139.762,267.573c-0.165,0.066-0.342,0.107-0.528,0.128c-1.155,0.128-2.199-0.71-2.323-1.869
							c-0.128-1.159,0.71-2.199,1.869-2.323c0.169-0.021,0.338-0.017,0.503,0.008C139.485,264.896,139.634,266.265,139.762,267.573z
							"/>
						<path style="fill:#FA7C55;" d="M126.473,266.964c0.126,1.158,1.166,1.995,2.325,1.87c1.158-0.126,1.995-1.166,1.87-2.325
							c-0.126-1.158-1.166-1.995-2.325-1.87C127.184,264.765,126.347,265.806,126.473,266.964z"/>
					</g>
					<g>
						<g>
							<g>
								<path style="fill:#121B46;" d="M135.364,261.883c0.074,0.685,0.406,1.21,0.74,1.174c0.335-0.036,0.545-0.621,0.471-1.306
									c-0.074-0.685-0.406-1.211-0.74-1.174C135.501,260.613,135.29,261.198,135.364,261.883z"/>
								<path style="fill:#121B46;" d="M137.029,260.051c-0.081,0.212-0.196,0.401-0.352,0.574c-0.155,0.171-0.36,0.314-0.598,0.397
									l-0.01,0.003c-0.118,0.041-0.246-0.021-0.287-0.139c-0.041-0.118,0.021-0.246,0.139-0.287
									c0.019-0.007,0.039-0.01,0.059-0.012c0.34-0.023,0.694-0.27,0.918-0.597l0.004-0.006c0.023-0.033,0.068-0.042,0.101-0.019
									C137.031,259.984,137.041,260.02,137.029,260.051z"/>
							</g>
							<g>
								<path style="fill:#121B46;" d="M131.33,262.32c0.074,0.685-0.137,1.269-0.471,1.306c-0.334,0.036-0.666-0.49-0.74-1.174
									c-0.074-0.685,0.137-1.269,0.471-1.306C130.924,261.11,131.256,261.635,131.33,262.32z"/>
								<path style="fill:#121B46;" d="M129.427,260.799c0.289,0.271,0.687,0.437,1.025,0.386c0.123-0.018,0.238,0.067,0.256,0.19
									s-0.067,0.238-0.19,0.256c-0.02,0.003-0.04,0.003-0.059,0.001l-0.012-0.001c-0.251-0.03-0.482-0.125-0.669-0.259
									c-0.19-0.135-0.343-0.295-0.467-0.485c-0.022-0.034-0.013-0.079,0.021-0.101c0.029-0.019,0.066-0.015,0.09,0.008
									L129.427,260.799z"/>
							</g>
						</g>
					</g>
					<g>
						<g>
							<path style="fill:#121B46;" d="M136.028,265.606c-0.166,0.432-0.447,0.819-0.8,1.137c-0.353,0.318-0.813,0.547-1.307,0.597
								c-0.492,0.041-0.992-0.074-1.4-0.319c-0.212-0.108-0.386-0.272-0.573-0.409c-0.163-0.168-0.322-0.337-0.467-0.513
								c0.202,0.117,0.388,0.244,0.575,0.367c0.203,0.095,0.389,0.219,0.592,0.295c0.4,0.174,0.824,0.248,1.234,0.21
								c0.413-0.035,0.81-0.21,1.167-0.455C135.405,266.266,135.732,265.957,136.028,265.606z"/>
							<path style="fill:#121B46;" d="M134.63,267.982c-0.156,0.172-0.387,0.253-0.614,0.285c-0.23,0.017-0.47-0.019-0.662-0.147
								c0.228,0.011,0.436,0.033,0.646,0.002C134.212,268.108,134.414,268.049,134.63,267.982z"/>
						</g>
					</g>
					<g>
						<g>
							<path style="fill:#121B46;" d="M131.367,257.965c-0.31-0.22-0.638-0.267-0.976-0.246c-0.334,0.029-0.672,0.105-0.984,0.25
								c-0.316,0.135-0.598,0.352-0.825,0.6c-0.24,0.241-0.394,0.542-0.517,0.835c-0.063,0.148,0.007,0.319,0.155,0.382
								c0.119,0.05,0.252,0.016,0.332-0.076l0.022-0.025c0.177-0.203,0.348-0.393,0.547-0.54c0.188-0.159,0.409-0.259,0.631-0.343
								c0.225-0.078,0.461-0.133,0.708-0.147c0.242-0.018,0.501-0.033,0.76-0.127l0.075-0.027c0.159-0.057,0.24-0.233,0.183-0.391
								C131.455,258.049,131.416,258,131.367,257.965z"/>
							<path style="fill:#121B46;" d="M134.394,257.637c0.255-0.281,0.566-0.398,0.901-0.449c0.332-0.044,0.679-0.042,1.015,0.033
								c0.338,0.064,0.659,0.216,0.935,0.409c0.286,0.184,0.501,0.445,0.684,0.705c0.093,0.132,0.062,0.314-0.07,0.406
								c-0.105,0.074-0.243,0.069-0.341-0.003l-0.027-0.02c-0.217-0.16-0.425-0.31-0.65-0.41c-0.218-0.115-0.455-0.165-0.69-0.2
								c-0.236-0.028-0.479-0.031-0.723,0.008c-0.241,0.034-0.497,0.075-0.77,0.039l-0.079-0.01
								c-0.167-0.022-0.285-0.176-0.263-0.343C134.326,257.738,134.354,257.681,134.394,257.637z"/>
						</g>
					</g>
					<path style="fill:#121B46;" d="M133.282,260.192c0.158,0.456,0.287,0.911,0.423,1.361c0.139,0.448,0.273,0.897,0.451,1.317
						c0.042,0.106,0.087,0.209,0.137,0.309c0.041,0.082,0.134,0.236,0.149,0.389c0.049,0.308-0.116,0.633-0.355,0.783
						c-0.242,0.173-0.543,0.182-0.786,0.128c-0.248-0.06-0.469-0.167-0.667-0.307c0.452,0.116,0.974,0.189,1.255-0.076
						c0.141-0.134,0.207-0.298,0.167-0.465c-0.017-0.086-0.051-0.139-0.121-0.265c-0.059-0.111-0.113-0.223-0.161-0.337
						c-0.184-0.458-0.304-0.927-0.382-1.402C133.313,261.152,133.271,260.674,133.282,260.192z"/>
					<path style="fill:#121B46;" d="M120.469,265.545c-0.038-0.284,0.007-0.608,0.234-0.856c0.243-0.247,0.625-0.269,0.926-0.192
						c0.318,0.073,0.592,0.255,0.815,0.469c0.228,0.216,0.403,0.458,0.555,0.741c0.054,0.101,0.016,0.227-0.085,0.282
						c-0.076,0.041-0.167,0.029-0.23-0.022l-0.015-0.013c-0.224-0.183-0.501-0.374-0.747-0.416
						c-0.123-0.018-0.212-0.005-0.288,0.064c-0.079,0.07-0.131,0.206-0.173,0.344c-0.076,0.283-0.105,0.608,0.14,0.709
						c0.258,0.112,0.611,0.04,0.924-0.037c-0.286,0.164-0.605,0.311-0.994,0.245c-0.198-0.041-0.374-0.242-0.407-0.437
						c-0.04-0.194-0.031-0.375-0.001-0.555c0.033-0.178,0.085-0.369,0.238-0.539c0.155-0.173,0.421-0.238,0.62-0.2
						c0.405,0.076,0.695,0.273,0.97,0.51l-0.33,0.247c-0.241-0.454-0.607-0.914-1.081-1.088c-0.237-0.083-0.509-0.109-0.71,0.034
						C120.62,264.976,120.515,265.264,120.469,265.545z"/>
				</g>
			</g>
			<g>
				<path style="fill:#121B46;" d="M142.052,275.271c-0.69,0.8-1.68,1.37-2.69,1.71c-1.27,0.43-2.63,0.53-3.97,0.56h-0.27
					c0-0.01-0.01-0.02-0.01-0.03c-0.32-1.11-0.6-2.34-0.6-3.33v-0.01c1.99-0.67,4.75-2.28,5.26-4.43c0.13-0.57,0.09-1.17,0.03-1.76
					c-0.01-0.14-0.02-0.27-0.04-0.41c-0.02-0.18-0.04-0.35-0.05-0.53c0.33,2.49,0.75,5.17,2.35,7.04
					C142.352,274.421,142.342,274.931,142.052,275.271z"/>
				<path style="fill:#121B46;" d="M136.113,251.677c-2.157-1.799-5.218-2.345-7.947-1.681c-1.35,0.329-2.765,1.098-3.583,2.221
					c-0.785-0.21-1.593,0.23-2.224,0.742c-2.125,1.728-3.326,4.528-3.121,7.26c-0.978,4.248-2.165,8.527-4.52,12.179
					c-0.171,0.266-0.186,0.597-0.026,0.87c0.624,1.059,2.495,3.576,6.279,4.365c1.074,0.366,0.645,0.6,2.154,0.691
					c0,0,1.675-1.978,1.478-3.359c1.213-1.97,2.044-4.185,2.476-6.462c0.346-1.82,0.451-3.675,0.365-5.526
					c-0.108-2.338,0.386-4.64,1.195-6.836c0.029-0.078,0.051-0.147,0.065-0.205c0.197,0.493,0.721,0.757,1.218,0.989
					c0.527,0.246,1.081,0.427,1.652,0.538c0.562,0.109,1.125,0.219,1.687,0.328c0.094-0.254,0.158-0.519,0.156-0.79
					c0.13,0.276,0.21,0.572,0.265,0.872c1.272,0.247,2.543,0.494,3.815,0.742c0.469,0.091,0.759,0.262,1.058,0.635
					C139.363,256.558,138.27,253.476,136.113,251.677z"/>
			</g>
		</g>
	</g>
	<g>
		<g>
			<g>
				
					<rect x="507.401" y="328.806" transform="matrix(0.8853 -0.4651 0.4651 0.8853 -102.8687 287.2169)" style="fill:#74B2E8;" width="46.593" height="46.593"/>
				<g>
					<g>
						<path style="fill:#FFFFFF;" d="M522.489,347.764c0.715,1.361,0.191,3.044-1.17,3.759c-1.361,0.715-3.044,0.191-3.759-1.17
							c-0.715-1.361-0.191-3.044,1.169-3.759C520.091,345.88,521.774,346.404,522.489,347.764z"/>
					</g>
					<path style="fill:#FFFFFF;" d="M551.527,357.894l-9.132-17.383c-1.188-0.051-2.402,0.276-3.418,0.905
						c-1.516,0.938-2.601,2.489-3.149,4.185c-0.41,1.268-0.536,2.608-0.808,3.912c-0.276,1.32-0.703,2.608-1.27,3.832
						c-0.296,0.639-0.641,1.273-1.162,1.747c-0.55,0.5-1.261,0.787-1.977,0.987c-1.572,0.439-3.221,0.503-4.831,0.769
						c-1.61,0.266-3.255,0.778-4.416,1.925c-1.419,1.403-1.849,3.453-2.073,5.473l4.358,8.295L551.527,357.894z"/>
				</g>
			</g>
			<g>
				
					<rect x="544.735" y="321.424" transform="matrix(0.9845 0.1753 -0.1753 0.9845 69.2372 -94.2513)" style="fill:#74B2E8;" width="46.593" height="46.593"/>
				<g>
					<g>
						<path style="fill:#FFFFFF;" d="M564.207,336.261c-0.269,1.514-1.715,2.522-3.228,2.252c-1.513-0.27-2.522-1.715-2.252-3.228
							c0.269-1.513,1.715-2.522,3.228-2.252C563.468,333.302,564.477,334.747,564.207,336.261z"/>
					</g>
					<path style="fill:#FFFFFF;" d="M580.937,362.066l3.443-19.332c-0.907-0.769-2.067-1.255-3.255-1.381
						c-1.773-0.188-3.581,0.372-5.054,1.376c-1.101,0.75-2.022,1.731-3.037,2.595c-1.027,0.874-2.154,1.63-3.352,2.248
						c-0.626,0.323-1.287,0.613-1.989,0.668c-0.741,0.058-1.479-0.151-2.167-0.432c-1.511-0.617-2.853-1.578-4.288-2.354
						c-1.435-0.777-3.049-1.381-4.669-1.187c-1.981,0.238-3.578,1.595-4.993,3.053l-1.643,9.225L580.937,362.066z"/>
				</g>
			</g>
			<g>
				<g>
					<path style="fill:#121B46;" d="M542.252,356.539c0.223-2.07,0.527-4.124,0.842-6.177c0.308-2.054,0.673-4.097,1.039-6.141
						c0.383-2.04,0.768-4.08,1.21-6.109c0.434-2.031,0.88-4.059,1.409-6.073c-0.222,2.07-0.526,4.124-0.841,6.177
						c-0.308,2.054-0.673,4.097-1.04,6.141c-0.384,2.04-0.769,4.08-1.211,6.109C543.225,352.497,542.779,354.526,542.252,356.539z"
						/>
				</g>
				<g>
					<path style="fill:#121B46;" d="M589.502,358.789c0.795-5.487,1.685-10.957,2.578-16.427l1.392-8.195
						c0.475-2.73,0.917-5.466,1.419-8.191l0.297,0.424c-4.744-0.867-9.497-1.68-14.234-2.59c-4.74-0.888-9.477-1.796-14.202-2.77
						c4.775,0.693,9.538,1.452,14.297,2.23c4.763,0.757,9.51,1.61,14.266,2.41l0.358,0.06l-0.061,0.364
						c-0.456,2.733-0.972,5.456-1.456,8.184l-1.483,8.18C591.65,347.913,590.623,353.36,589.502,358.789z"/>
				</g>
			</g>
		</g>
		<g>
			<g>
				<rect x="506.297" y="357.239" style="fill:#FDB32C;" width="57.032" height="59.3"/>
				<polygon style="fill:#F0A824;" points="587.633,410.383 563.005,416.539 563.005,357.239 587.633,357.239 				"/>
				<polygon style="fill:#E69E19;" points="506.297,357.239 496.252,371.173 553.284,371.173 563.005,357.239 				"/>
				<path style="fill:#E69E19;" d="M563.005,357.239l11.018,12.314h26.896l-13.286-12.314
					C587.633,357.239,562.681,357.239,563.005,357.239z"/>
			</g>
			<g>
				<g>
					<path style="fill:#121B46;" d="M562.585,358.206c0.155,4.75,0.227,9.5,0.287,14.25l0.088,14.25l-0.086,14.25
						c-0.06,4.75-0.133,9.5-0.288,14.25c-0.156-4.75-0.228-9.5-0.288-14.25l-0.086-14.25l0.088-14.25
						C562.358,367.706,562.431,362.956,562.585,358.206z"/>
				</g>
				<g>
					<path style="fill:#121B46;" d="M525.252,393.873c1.382-1.799,2.925-3.438,4.508-5.038c1.598-1.584,3.237-3.127,5.038-4.508
						c-1.381,1.801-2.924,3.439-4.508,5.038C528.69,390.947,527.051,392.49,525.252,393.873z"/>
				</g>
				<g>
					<path style="fill:#121B46;" d="M530.252,393.206c0.823-1.24,1.806-2.319,2.828-3.358c1.039-1.024,2.117-2.007,3.359-2.828
						c-0.821,1.241-1.805,2.32-2.828,3.358C532.571,391.4,531.492,392.383,530.252,393.206z"/>
				</g>
				<g>
					<path style="fill:#121B46;" d="M574.585,389.206c0.458-0.875,1.077-1.59,1.735-2.265c0.674-0.659,1.388-1.278,2.265-1.735
						c-0.457,0.876-1.076,1.591-1.735,2.265C576.175,388.129,575.461,388.748,574.585,389.206z"/>
				</g>
				<g>
					<path style="fill:#121B46;" d="M577.919,391.206c0.236-0.653,0.633-1.145,1.068-1.598c0.452-0.437,0.944-0.834,1.598-1.068
						c-0.235,0.654-0.631,1.146-1.068,1.598C579.064,390.573,578.572,390.97,577.919,391.206z"/>
				</g>
			</g>
		</g>
	</g>
	<g>
		<g>
			<g>
				<g>
					<g>
						<path style="fill:#ED8D5D;" d="M535.883,193.763c-1.154,0.867-0.638,2.951-0.194,4.58c0.75,2.75,2.006,4.566,2.125,8.063
							c0.092,2.707,1.914,2.884,3.042,2.805c0.295-0.021,0.521-0.27,0.505-0.566c-0.051-0.937-0.101-3.098,0.271-5.747
							c0.501-3.566,1.385-8.996,1.385-8.996s0.466-4.641,1.097-11.57c-1.499-0.197-2.986-0.455-4.465-0.759
							c-1.618-0.184-3.233-0.392-4.842-0.632L535.883,193.763z"/>
					</g>
					<path style="fill:#FDB32C;" d="M541.495,204.055c0,0-1.834-1.103-3.07-0.811c-0.623,0.147-1.37-1.65-1.956-3.468
						c-0.598-1.852-0.633-3.819-0.313-5.739c0.06-0.364,0.06-0.676-0.061-0.836c-0.424-0.56-4.177,1.331-4.127,2.225
						c0.046,0.823,8.37,17.427,9.689,20.054c0.102,0.204,0.342,0.288,0.548,0.191c0.644-0.303,1.866-1.029,1.535-2.066
						C543.296,212.212,541.495,204.055,541.495,204.055z"/>
				</g>
				<g>
					<g>
						<path style="fill:#FF5C5B;" d="M535.585,192.364l7.417,2.333c0,0,3.769-34.655,3.237-37.775
							c-0.533-3.12-3.425-7.762-9.361-6.849c-5.936,0.913-7.534,3.881-7.534,3.881L535.585,192.364z"/>
					</g>
				</g>
			</g>
			<g>
				<g>
					<g>
						<path style="fill:#FF5C5B;" d="M543.079,151.132c-0.047-0.039-0.094-0.077-0.14-0.116c-7.208-5.948-15.76-12.747-19.033-14.53
							c-6.217-3.382-10.132-2.997-12.529-1.662c-2.397-1.334-6.312-1.719-12.529,1.662c-3.273,1.783-11.825,8.582-19.033,14.53
							c-0.047,0.038-0.093,0.077-0.14,0.116c-5.612,4.631-2.909,13.736,4.32,14.562c0.067,0.008,0.134,0.015,0.202,0.023
							c0.356,0.041,0.715-0.039,1.021-0.227l14.525-8.924l11.635-0.952l11.635,0.952l14.996,9.214
							c0.25-0.029,0.501-0.057,0.751-0.086C545.988,164.868,548.691,155.762,543.079,151.132z"/>
					</g>
				</g>
				<g>
					<g>
						<path style="fill:#121B46;" d="M504.085,148.781c0.686,1.045,1.208,2.153,1.675,3.283l0.24,0.581l-0.634-0.085
							c-1.53-0.204-3.05-0.482-4.53-1.029c1.575-0.103,3.111,0.063,4.636,0.304l-0.394,0.496
							C504.655,151.183,504.288,150.014,504.085,148.781z"/>
					</g>
					<g>
						<path style="fill:#121B46;" d="M518.835,149.114c-0.183,1.234-0.596,2.37-1.076,3.478l-0.597-0.411
							c0.763-0.708,1.567-1.375,2.507-1.9c-0.56,0.919-1.257,1.697-1.993,2.433l-1.318,1.317l0.721-1.728
							C517.543,151.188,518.073,150.102,518.835,149.114z"/>
					</g>
				</g>
			</g>
			<g>
				<g>
					<g>
						<path style="fill:#ED8D5D;" d="M531.047,157.38c-3.495-0.167-6.719-1.177-7.92-2.975c-0.939-1.406-3.876,0.41-4.757,1.554
							l-9.41-0.919c-0.104,0.555-0.206,1.111-0.302,1.67c-0.412,2.406-0.784,4.818-1.229,7.217c5.223-0.429,9.249-0.788,11.05-0.952
							c1.568-0.09,6.158-0.561,8.953-1.141c2.619-0.543,5.697-0.618,6.633-0.554c0.295,0.02-0.335,0.16-0.31-0.135
							C533.849,160.02,533.753,157.509,531.047,157.38z"/>
					</g>
					<path style="fill:#FDB32C;" d="M529.252,161.781c0,0-1.1-2.295-0.853-3.54c0.125-0.628-1.698-1.309-3.536-1.83
						c-1.873-0.531-3.839-0.494-5.747-0.106c-0.361,0.074-1.043-0.159-1.207-0.274c-0.575-0.403,1.549-3.979,2.444-3.962
						c0.824,0.016,17.718,7.735,20.39,8.958c0.207,0.095,0.3,0.331,0.211,0.541c-0.279,0.655-0.961,1.902-2.009,1.609
						C537.537,162.785,529.252,161.781,529.252,161.781z"/>
				</g>
				<g>
					<g>
						<g>
							<path style="fill:#FF5C5B;" d="M487.816,145.553c0,0-10.677,3.95-12.444,8.595c-1.767,4.645,0.022,11.11,6.454,11.86
								s39.176-3.06,39.176-3.06l-3.5-7.083l-32.267-5.877L487.816,145.553z"/>
						</g>
					</g>
					<g>
						<g>
							<path style="fill:#121B46;" d="M517.585,155.864c-2.23-0.258-4.444-0.596-6.655-0.947c-2.212-0.349-4.411-0.764-6.617-1.143
								c-2.196-0.438-4.397-0.845-6.587-1.314c-2.191-0.469-4.38-0.95-6.557-1.514c2.226,0.256,4.44,0.594,6.652,0.945
								c2.212,0.351,4.414,0.764,6.621,1.145c2.197,0.441,4.4,0.845,6.591,1.316C513.224,154.821,515.412,155.302,517.585,155.864z"
								/>
						</g>
						<g>
							<path style="fill:#121B46;" d="M493.835,149.197c0.54,0.3,0.889,0.722,1.191,1.174c0.283,0.464,0.517,0.959,0.559,1.576
								c-0.542-0.299-0.891-0.721-1.191-1.174C494.113,150.309,493.878,149.814,493.835,149.197z"/>
						</g>
					</g>
				</g>
			</g>
		</g>
		<g>
			<g>
				<path style="fill:#F28766;" d="M508.1,140.794c0.304-0.423,1.668-0.257,2.349-0.052c0.143,0.043,0.283-0.04,0.305-0.189
					c0.045-0.294-0.016-0.758-0.717-1.021c-0.91-0.341-2.719-0.978-5.045-0.911l-0.01-0.01c-0.146-0.138-1.066-1.008-2.518-2.385
					c-1.241,1.373-2.543,2.744-3.867,4.124c1.468,0.634,2.963,1.217,4.485,1.731l0.01-0.02l0.001-0.001
					c0.963,1.517,3.327,5.074,4.903,6.052c0.129,0.08,0.273-0.011,0.261-0.163c-0.026-0.321-0.257-0.975-1.25-2.23
					c0,0,2.697,2.065,3.304,1.984c0.608-0.081-2.447-3.192-2.447-3.192s3.278,1.999,3.76,1.713c0.482-0.286-2.897-2.996-2.897-2.996
					s3.497,1.865,3.603,1.558C512.597,144.022,507.757,141.271,508.1,140.794z"/>
				<g>
					<path style="fill:#F46A2B;" d="M505.522,104.734c0,0-5.395-0.578-11.145,4.609c-3.049,2.751-6.589,6.907-9.243,10.204
						c-3.35,4.163-5.184,9.412-4.798,14.742c0.1,1.374,0.354,2.601,0.854,3.429c2,3.313,20.875,5.875,20.875,5.875l3.438-5.625
						l-12-10.813l11.562-13.438C505.064,113.718,508.354,108.5,505.522,104.734z"/>
					<g>
						<path style="fill:#121B46;" d="M490.752,125.406c1.056,0.643,1.987,1.417,2.878,2.234l-0.582,0.43
							c-0.681-1.326-1.296-2.685-1.671-4.164c0.958,1.188,1.676,2.495,2.329,3.836l0.945,1.941l-1.527-1.51
							C492.264,127.322,491.446,126.429,490.752,125.406z"/>
					</g>
				</g>
			</g>
			<g>
				<g>
					<path style="fill:#ED8D5D;" d="M508.225,112.126c0.267-0.026,0.536-0.048,0.797-0.089c4.854-0.773,7.421-3.798,9.984-7.028
						c-0.484-0.063-0.943-0.149-1.348-0.274c-0.592-0.686-1.059-1.599-1.437-2.959c-0.144-0.962-0.231-1.955-0.149-2.766v-0.004
						c0.045-0.477,0.146-0.89,0.328-1.193l-4.728-2.417l-4.98,1.593c0.124,0.206,0.255,0.839,0.341,1.376
						c0.066,0.864,0.045,2.339-0.074,3.418c-0.378,1.356-0.844,2.268-1.435,2.953c-0.642,0.199-1.378,0.331-2.225,0.361
						c-0.071,0.002-0.14,0.02-0.21,0.025C504.24,107.831,505.977,110.284,508.225,112.126z"/>
					<path style="fill:#ED8D5D;" d="M507.118,99.005l-0.041-0.334C507.095,98.799,507.11,98.917,507.118,99.005z"/>
					<path style="fill:#E6794E;" d="M507.018,98.185c0,0,3.219,2.266,9.161,0.176C516.179,98.361,511.534,105.121,507.018,98.185z"
						/>
				</g>
				<g>
					<path style="fill:#F46A2B;" d="M505.522,104.734c0,0,2.168,3.734,5.918,3.297c3.75-0.438,6.25-3.5,6.25-3.5
						s4.875,0.5,7.25,2.375s-0.625,15.188-0.625,15.188l-0.688,16.063h-24.063c0,0-0.187-10.75-0.812-13.75s-3.188-13.75-2-16.063
						C497.939,106.031,500.854,104.688,505.522,104.734z"/>
					<g>
						<path style="fill:#FDB32C;" d="M495.084,107.912c1.613-1.296,4.866-3.457,8.637-3.472c0.811-0.003,1.54,0.496,1.879,1.232
							c2.284,4.967,11.811,24.668,21.402,29.608l6.917,8.167c0,0-28.5-2.583-34.667-7.25c-6.017-4.553,0.025-8.948-4.864-26.033
							C494.151,109.337,494.413,108.451,495.084,107.912z"/>
						<g>
							<g>
								<path style="fill:#121B46;" d="M503.752,105.406c0.792,1.442,1.551,2.893,2.319,4.337c0.779,1.438,1.529,2.889,2.324,4.314
									c0.781,1.432,1.581,2.853,2.416,4.253c0.841,1.396,1.716,2.77,2.69,4.096c-1.21-1.122-2.224-2.438-3.175-3.783
									c-0.96-1.343-1.787-2.77-2.589-4.207c-0.786-1.446-1.524-2.916-2.183-4.423C504.891,108.491,504.26,106.972,503.752,105.406
									z"/>
							</g>
							<g>
								<path style="fill:#121B46;" d="M498.258,113.529c0.878,1.647,1.775,3.216,2.841,4.684c1.051,1.479,2.25,2.831,3.528,4.192
									c-1.648-0.893-3.035-2.234-4.137-3.755C499.404,117.118,498.579,115.375,498.258,113.529z"/>
							</g>
							<g>
								<path style="fill:#121B46;" d="M502.11,114.918c1.094,0.992,2.065,2.035,3.071,3.056c0.99,1.037,2.001,2.04,2.957,3.167
									c-1.324-0.661-2.47-1.601-3.495-2.646C503.633,117.437,502.73,116.262,502.11,114.918z"/>
							</g>
						</g>
					</g>
				</g>
			</g>
			<g>
				<path style="fill:#F28766;" d="M518.828,138.855c-0.252-0.421-0.509-0.862-0.767-1.311c-0.64,0.606-1.035,0.98-1.127,1.066
					l-0.01,0.01c-2.326-0.068-4.135,0.569-5.045,0.911c-0.702,0.263-0.762,0.727-0.717,1.021c0.023,0.15,0.162,0.233,0.305,0.189
					c0.681-0.206,2.045-0.371,2.349,0.052c0.343,0.478-4.497,3.229-4.231,3.991c0.107,0.307,3.603-1.558,3.603-1.558
					s-3.379,2.71-2.897,2.996c0.482,0.286,3.76-1.713,3.76-1.713s-3.055,3.111-2.447,3.192c0.608,0.081,3.304-1.984,3.304-1.984
					c-0.993,1.255-1.223,1.909-1.25,2.23c-0.013,0.152,0.132,0.243,0.261,0.163c1.577-0.978,3.94-4.536,4.903-6.052l0.001,0.001
					l0.01,0.02c0.536-0.181,1.066-0.378,1.595-0.574C519.894,140.624,519.358,139.741,518.828,138.855z"/>
				<g>
					<path style="fill:#F46A2B;" d="M517.498,104.734c0,0,5.395-0.578,11.145,4.609c3.049,2.751,6.589,6.907,9.243,10.204
						c3.35,4.163,5.184,9.412,4.798,14.742c-0.1,1.374-0.354,2.601-0.854,3.429c-2,3.313-20.875,5.875-20.875,5.875l-3.438-5.625
						l12-10.813l-11.563-13.438C517.955,113.718,514.665,108.5,517.498,104.734z"/>
					<g>
						<path style="fill:#121B46;" d="M524.627,121.531c-0.696-0.321-1.225-0.796-1.713-1.309c-0.471-0.528-0.901-1.094-1.162-1.816
							c0.697,0.32,1.226,0.795,1.713,1.309C523.935,120.244,524.365,120.81,524.627,121.531z"/>
					</g>
				</g>
			</g>
			<g>
				<path style="fill:#A0D3F2;" d="M528.446,146.197H495.78l-2.5-20.44c-0.177-1.449,0.953-2.726,2.413-2.726h32.84
					c1.46,0,2.59,1.277,2.413,2.726L528.446,146.197z"/>
				<path style="fill:#5EACDB;" d="M528.696,148.114H495.53c-0.184,0-0.333-0.149-0.333-0.333v-1.667
					c0-0.184,0.149-0.333,0.333-0.333h33.167c0.184,0,0.333,0.149,0.333,0.333v1.667C529.03,147.965,528.88,148.114,528.696,148.114
					z"/>
				<path style="fill:#FFFFFF;" d="M515.071,134.739c0,1.634-1.325,2.958-2.958,2.958c-1.634,0-2.958-1.324-2.958-2.958
					c0-1.634,1.324-2.958,2.958-2.958C513.747,131.781,515.071,133.105,515.071,134.739z"/>
			</g>
		</g>
		<g>
			<g>
				<path style="fill:#ED8D5D;" d="M522.269,88.451c-0.283-0.888-1.23-1.6-2.175-1.369c0.419-12.348-9.875-10.685-9.875-10.685
					c-6.461,0.561-7.199,7.428-7.151,10.926c-0.209-0.122-0.405-0.213-0.514-0.24c-0.947-0.236-1.898,0.478-2.182,1.368
					c-0.226,0.709-0.073,1.51,0.332,2.135c0.337,0.519,0.883,1.003,1.467,1.225c0.133,0.051,0.681,0.142,1.127,0.129
					c0.998,8.074,8.313,7.279,8.313,7.279c6.341,0.314,7.987-4.116,8.356-7.313c0.233-0.029,0.432-0.068,0.504-0.095
					c0.584-0.222,1.13-0.706,1.467-1.225C522.342,89.961,522.495,89.16,522.269,88.451z"/>
				<g>
					<g>
						<g>
							<g>
								<path style="fill:#121B46;" d="M513.6,87.521c0,0.675,0.267,1.223,0.597,1.223c0.33,0,0.597-0.547,0.597-1.223
									s-0.267-1.223-0.597-1.223C513.867,86.299,513.6,86.846,513.6,87.521z"/>
							</g>
							<g>
								<path style="fill:#121B46;" d="M509.622,87.521c0,0.675-0.267,1.223-0.597,1.223c-0.33,0-0.597-0.547-0.597-1.223
									s0.267-1.223,0.597-1.223C509.354,86.299,509.622,86.846,509.622,87.521z"/>
							</g>
						</g>
					</g>
					<g>
						<g>
							<path style="fill:#121B46;" d="M513.853,91.221c-0.207,0.403-0.522,0.751-0.9,1.024c-0.377,0.273-0.85,0.448-1.337,0.444
								c-0.484-0.012-0.959-0.177-1.331-0.459c-0.195-0.128-0.348-0.306-0.516-0.459c-0.141-0.181-0.278-0.362-0.401-0.55
								c0.185,0.135,0.353,0.279,0.522,0.418c0.188,0.114,0.356,0.255,0.546,0.35c0.371,0.212,0.777,0.329,1.181,0.336
								c0.407,0.01,0.811-0.119,1.186-0.32C513.176,91.798,513.527,91.531,513.853,91.221z"/>
							<path style="fill:#121B46;" d="M512.24,93.388c-0.17,0.151-0.404,0.206-0.629,0.213c-0.226-0.007-0.456-0.069-0.629-0.213
								c0.221,0.035,0.422,0.079,0.63,0.071C511.819,93.467,512.022,93.431,512.24,93.388z"/>
						</g>
					</g>
					<g>
						<g>
							<path style="fill:#121B46;" d="M510.118,83.281c-0.279-0.247-0.594-0.328-0.925-0.343c-0.328-0.008-0.666,0.031-0.986,0.14
								c-0.322,0.098-0.62,0.28-0.868,0.497c-0.259,0.21-0.441,0.487-0.592,0.76c-0.077,0.138-0.027,0.312,0.111,0.389
								c0.111,0.061,0.244,0.042,0.332-0.039l0.024-0.022c0.194-0.179,0.381-0.346,0.59-0.468c0.201-0.135,0.426-0.209,0.651-0.268
								c0.227-0.053,0.464-0.081,0.706-0.068c0.238,0.008,0.492,0.02,0.754-0.044l0.076-0.018c0.161-0.039,0.259-0.201,0.22-0.362
								C510.195,83.372,510.162,83.32,510.118,83.281z"/>
							<path style="fill:#121B46;" d="M513.103,83.281c0.279-0.247,0.594-0.328,0.925-0.343c0.328-0.008,0.666,0.031,0.986,0.14
								c0.322,0.098,0.62,0.28,0.868,0.497c0.259,0.21,0.441,0.487,0.592,0.76c0.077,0.138,0.027,0.312-0.111,0.389
								c-0.11,0.061-0.244,0.042-0.332-0.039l-0.024-0.022c-0.194-0.179-0.381-0.346-0.59-0.468
								c-0.201-0.135-0.426-0.209-0.651-0.268c-0.227-0.053-0.464-0.081-0.706-0.068c-0.238,0.008-0.492,0.02-0.754-0.044
								l-0.076-0.018c-0.161-0.039-0.259-0.201-0.22-0.362C513.026,83.372,513.059,83.32,513.103,83.281z"/>
						</g>
					</g>
					<path style="fill:#121B46;" d="M511.749,85.653c0.106,0.461,0.183,0.918,0.269,1.372c0.088,0.452,0.172,0.903,0.3,1.331
						c0.03,0.108,0.063,0.213,0.101,0.316c0.031,0.084,0.106,0.244,0.104,0.395c0.016,0.305-0.18,0.604-0.429,0.725
						c-0.254,0.143-0.548,0.12-0.78,0.042c-0.235-0.085-0.44-0.212-0.617-0.369c0.429,0.161,0.93,0.287,1.231,0.059
						c0.152-0.115,0.233-0.269,0.212-0.436c-0.008-0.086-0.035-0.141-0.089-0.271c-0.046-0.114-0.087-0.23-0.121-0.345
						c-0.131-0.466-0.198-0.936-0.224-1.407C511.678,86.593,511.688,86.122,511.749,85.653z"/>
					<path style="fill:#121B46;" d="M501.121,89.112c-0.007-0.281,0.071-0.592,0.318-0.809c0.263-0.215,0.638-0.196,0.923-0.089
						c0.302,0.105,0.55,0.312,0.745,0.543c0.2,0.234,0.345,0.489,0.463,0.781c0.042,0.104-0.008,0.223-0.113,0.265
						c-0.079,0.032-0.166,0.011-0.222-0.046l-0.014-0.014c-0.199-0.202-0.448-0.417-0.685-0.484
						c-0.118-0.031-0.206-0.027-0.288,0.032c-0.085,0.06-0.15,0.187-0.205,0.317c-0.104,0.268-0.167,0.582,0.062,0.706
						c0.24,0.136,0.591,0.103,0.905,0.062c-0.296,0.13-0.623,0.239-0.994,0.133c-0.189-0.061-0.339-0.275-0.351-0.469
						c-0.018-0.193,0.01-0.369,0.058-0.541c0.051-0.17,0.122-0.351,0.289-0.5c0.17-0.152,0.436-0.188,0.626-0.129
						c0.387,0.117,0.648,0.34,0.891,0.6l-0.348,0.206c-0.187-0.468-0.495-0.955-0.939-1.175c-0.222-0.106-0.485-0.16-0.695-0.042
						C501.329,88.573,501.196,88.843,501.121,89.112z"/>
					<path style="fill:#121B46;" d="M521.787,89.112c0.007-0.281-0.071-0.592-0.318-0.809c-0.263-0.215-0.638-0.196-0.922-0.089
						c-0.302,0.105-0.55,0.312-0.745,0.543c-0.2,0.234-0.345,0.489-0.463,0.781c-0.042,0.104,0.008,0.223,0.112,0.265
						c0.079,0.032,0.166,0.011,0.222-0.046l0.013-0.014c0.199-0.202,0.448-0.417,0.685-0.484c0.118-0.031,0.206-0.027,0.288,0.032
						c0.085,0.06,0.15,0.187,0.205,0.317c0.104,0.268,0.167,0.582-0.062,0.706c-0.24,0.136-0.591,0.103-0.905,0.062
						c0.296,0.13,0.623,0.239,0.994,0.133c0.188-0.061,0.339-0.275,0.351-0.469c0.018-0.193-0.01-0.369-0.058-0.541
						c-0.051-0.17-0.122-0.351-0.289-0.5c-0.17-0.152-0.436-0.188-0.626-0.129c-0.387,0.117-0.648,0.34-0.891,0.6l0.348,0.206
						c0.187-0.468,0.495-0.955,0.939-1.175c0.222-0.106,0.485-0.16,0.695-0.042C521.579,88.573,521.712,88.843,521.787,89.112z"/>
					<path style="fill:#121B46;" d="M511.749,94.376c-0.094-0.085-0.227-0.088-0.325-0.007c-0.491,0.405-1.901,1.717-1.797,3.37
						l0.417-0.375c0,0,0.195,1.385,1.221,1.691c0.045,0.022,0.457,0.042,0.52,0.007c1.017-0.255,1.18-1.698,1.18-1.698l0.417,0.375
						C513.484,96.095,512.207,94.788,511.749,94.376z"/>
				</g>
			</g>
			<path style="fill:#121B46;" d="M524.492,87.351c-0.16-2.06-2.9-3.13-3.17-5.18c-0.17-1.28,0.71-2.49,0.71-3.78
				c-0.01-1.05-0.63-2.04-1.51-2.6c-0.88-0.56-1.98-0.71-3.01-0.51c-0.98,0.18-1.93,0.67-2.91,0.53c-1.85-0.24-3.09-2.52-4.94-2.34
				c-1.31,0.12-2.14,1.41-2.77,2.56c-0.01,0.01-0.01,0.01-0.02,0.02c-0.6,1.08-1.87,1.62-3.06,1.32c-0.62-0.16-1.25-0.18-1.83,0.07
				c-1.29,0.55-1.72,2.22-1.57,3.62c0.14,1.26,0.53,2.74-0.37,3.63c-0.46,0.46-1.14,0.6-1.71,0.92c-1.44,0.83-1.93,2.79-1.47,4.39
				c0.47,1.6,1.68,2.87,2.99,3.91c0.67,0.53,1.48,1.25,1.25,2.08c-0.09,0.31-0.31,0.56-0.44,0.85c-0.53,1.14,0.42,2.45,1.5,3.12
				c1.44,0.89,3.21,1.2,4.87,0.88c0.05-0.89,0.05-1.84,0-2.48c-0.01-0.05-0.02-0.11-0.03-0.16c-1.68-0.96-3.27-2.79-3.7-6.26
				c-0.45,0.01-1-0.08-1.13-0.13c-0.58-0.22-1.13-0.71-1.47-1.23c-0.4-0.62-0.56-1.42-0.33-2.13c0.28-0.89,1.24-1.6,2.18-1.37
				c0.09,0.025,0.246,0.096,0.414,0.185c0.33,0.36,0.697,0.679,1.063,0.93c0.21,0.144,0.455,0.278,0.706,0.235
				c0.412-0.07,0.592-0.548,0.706-0.95c0.303-1.071,0.67-2.123,1.099-3.15c0.286-0.686,0.751-1.465,1.494-1.477
				c0.707-0.011,1.19,0.678,1.779,1.068c0.491,0.325,1.11,0.451,1.689,0.343c0.793-0.148,1.444-0.696,2.177-1.035
				c0.732-0.339,1.739-0.402,2.22,0.246c0.703,0.948-0.274,2.607,0.634,3.36c0.311,0.258,0.773,0.315,1.023,0.632
				c0.271,0.344,0.18,0.835,0.184,1.274s0.253,0.981,0.69,0.941c0.24-0.022,0.422-0.219,0.566-0.411
				c0.475-0.631,0.892-1.394,1.209-2.204c0.911-0.151,1.79,0.529,2.068,1.384c0.22,0.71,0.07,1.51-0.33,2.13
				c-0.34,0.52-0.89,1.01-1.47,1.23c-0.07,0.03-0.27,0.07-0.51,0.1c-0.25,2.22-1.13,5.05-3.78,6.45c-0.06,0.2-0.09,0.41-0.11,0.64
				v0.01c-0.03,0.26-0.03,0.53-0.03,0.82c0.11,0,0.23,0.02,0.34,0.03c0.54,0.06,1.11,0.14,1.62-0.05c1.31-0.5,1.42-2.38,2.48-3.31
				c0.95-0.82,2.55-0.76,3.25-1.81c0.64-0.98-0.24-2.25-0.25-3.41C523.472,89.921,524.592,88.711,524.492,87.351z"/>
		</g>
	</g>
</g>
<g id="DESIGNED_BY_FREEPIK">
	<g id="XMLID_30_">
		<g id="XMLID_230_">
			<g id="XMLID_249_">
				<path id="XMLID_257_" style="fill:#1C1C1B;" d="M385.104,465.465c-0.433,0.443-0.804,0.932-1.108,1.453l-0.465-0.241
					c-0.067-0.297-0.35-0.502-0.659-0.466c-0.331,0.039-0.567,0.339-0.529,0.67c0.039,0.331,0.339,0.567,0.67,0.528
					c0.065-0.007,0.127-0.025,0.184-0.052l0.451,0.234c-0.251,0.554-0.433,1.139-0.539,1.743l0.747,0.132
					c0.229-1.306,0.85-2.507,1.792-3.473L385.104,465.465z"/>
				<path id="XMLID_256_" style="fill:#1C1C1B;" d="M390.591,463.163c-0.171,0-0.341,0.006-0.509,0.017l-0.074-0.626
					c0.188-0.149,0.296-0.389,0.266-0.645c-0.046-0.393-0.402-0.674-0.795-0.628c-0.394,0.046-0.675,0.402-0.628,0.796
					c0.03,0.254,0.189,0.461,0.404,0.563l0.073,0.624c-0.714,0.116-1.402,0.332-2.06,0.645l0.327,0.685
					c0.935-0.447,1.941-0.674,2.995-0.674c0.497,0,0.993,0.053,1.476,0.158l0.16-0.741
					C391.692,463.222,391.142,463.163,390.591,463.163z"/>
				<path id="XMLID_255_" style="fill:#1C1C1B;" d="M397.194,465.71c0.331-0.04,0.566-0.341,0.525-0.672
					c-0.04-0.331-0.341-0.566-0.672-0.525c-0.31,0.038-0.535,0.304-0.53,0.608l-0.416,0.363c-0.418-0.43-0.89-0.813-1.407-1.14
					l-0.404,0.642c1.135,0.715,2.021,1.727,2.564,2.925l0.69-0.313c-0.251-0.554-0.567-1.071-0.942-1.545l0.402-0.351
					C397.065,465.715,397.128,465.719,397.194,465.71z"/>
				<path id="XMLID_254_" style="fill:#1C1C1B;" d="M390.044,473.371c-0.386,0.023-0.775,0.035-1.157,0.035
					c-0.88,0-1.733-0.061-2.479-0.18c-0.391-0.061-0.846-0.154-1.271-0.292c1.047,1.861,3.069,3.125,5.389,3.125
					c2.855,0,5.263-1.916,5.949-4.503c-0.682,0.449-1.505,0.825-2.458,1.122C392.838,473.047,391.463,473.286,390.044,473.371z"/>
				<path id="XMLID_250_" style="fill:#1C1C1B;" d="M390.591,464.68c-3.351,0-6.079,2.666-6.079,5.943
					c0,0.425,0.046,0.849,0.137,1.261c0.674,0.483,2.706,0.891,5.348,0.731c2.88-0.174,5.297-0.958,6.672-2.159
					c-0.005-0.194-0.02-0.39-0.045-0.581C396.244,466.913,393.65,464.68,390.591,464.68z M388.432,471.194
					c-1.02,0-1.85-0.83-1.85-1.85c0-1.021,0.83-1.85,1.85-1.85c1.02,0,1.85,0.83,1.85,1.85
					C390.282,470.364,389.452,471.194,388.432,471.194z M393.169,470.286c-0.75,0-1.36-0.61-1.36-1.36s0.61-1.36,1.36-1.36
					s1.36,0.61,1.36,1.36S393.919,470.286,393.169,470.286z"/>
			</g>
			<path id="XMLID_247_" style="fill:#1C1C1B;" d="M406.595,466.547c-0.295-0.116-0.806-0.31-1.383-0.238
				c-0.551,0.069-0.844,0.341-0.844,1.007v0.866h2.229v1.717h-2.229v5.455h-1.932v-5.455h-1.339v-1.717h1.339v-0.889
				c0-1.68,0.896-2.782,2.568-2.782c0.643,0,1.157,0.121,1.59,0.308V466.547z"/>
			<path id="XMLID_245_" style="fill:#1C1C1B;" d="M411.297,469.878c-0.177-0.029-0.357-0.046-0.525-0.046
				c-0.896,0-1.51,0.548-1.51,1.613v3.908h-1.933v-7.172h1.873v0.784c0.451-0.673,1.14-0.977,2.021-0.977
				c0.414,0,0.848,0.128,1.095,0.337L411.297,469.878z"/>
			<path id="XMLID_242_" style="fill:#1C1C1B;" d="M418.965,471.757c0,0.222-0.016,0.488-0.037,0.651h-5.085
				c0.207,1.036,0.933,1.487,1.843,1.487c0.622,0,1.295-0.252,1.813-0.689l1.133,1.243c-0.814,0.748-1.851,1.089-3.057,1.089
				c-2.198,0-3.724-1.496-3.724-3.753c0-2.258,1.48-3.797,3.627-3.797C417.543,467.989,418.958,469.522,418.965,471.757z
				 M413.851,471.091h3.175c-0.178-0.918-0.732-1.436-1.561-1.436C414.554,469.654,414.021,470.202,413.851,471.091z"/>
			<path id="XMLID_239_" style="fill:#1C1C1B;" d="M426.619,471.757c0,0.222-0.016,0.488-0.037,0.651h-5.085
				c0.207,1.036,0.933,1.487,1.843,1.487c0.622,0,1.296-0.252,1.814-0.689l1.133,1.243c-0.815,0.748-1.851,1.089-3.058,1.089
				c-2.198,0-3.723-1.496-3.723-3.753c0-2.258,1.48-3.797,3.627-3.797C425.197,467.989,426.611,469.522,426.619,471.757z
				 M421.504,471.091h3.175c-0.178-0.918-0.733-1.436-1.561-1.436C422.208,469.654,421.674,470.202,421.504,471.091z"/>
			<path id="XMLID_236_" style="fill:#1C1C1B;" d="M434.964,471.764c0,2.154-1.495,3.775-3.472,3.775
				c-0.962,0-1.644-0.378-2.109-0.933v3.708h-1.925v-10.133h1.888v0.792c0.467-0.585,1.154-0.984,2.139-0.984
				C433.469,467.989,434.964,469.61,434.964,471.764z M429.287,471.764c0,1.133,0.748,1.977,1.844,1.977
				c1.14,0,1.85-0.881,1.85-1.977c0-1.095-0.71-1.976-1.85-1.976C430.035,469.788,429.287,470.632,429.287,471.764z"/>
			<path id="XMLID_233_" style="fill:#1C1C1B;" d="M438.068,465.835c0,0.696-0.541,1.23-1.236,1.23c-0.696,0-1.229-0.533-1.229-1.23
				c0-0.695,0.532-1.243,1.229-1.243C437.527,464.592,438.068,465.14,438.068,465.835z M437.808,475.353h-1.932v-7.172h1.932
				V475.353z"/>
			<path id="XMLID_231_" style="fill:#1C1C1B;" d="M441.032,470.735l2.702-2.554h2.368l-3.478,3.375l3.501,3.797h-2.376
				l-2.717-2.901v2.901H439.1v-10.658h1.932V470.735z"/>
		</g>
		<g id="XMLID_202_">
			<path id="XMLID_227_" style="fill:#1C1C1B;" d="M309.412,475.289v-1.055c-0.527,0.718-1.391,1.23-2.387,1.23
				c-1.846,0-3.149-1.406-3.149-3.706c0-2.256,1.289-3.721,3.149-3.721c0.952,0,1.816,0.469,2.387,1.245v-3.765h1.099v9.771H309.412
				z M309.412,473.37v-3.208c-0.395-0.615-1.245-1.143-2.124-1.143c-1.42,0-2.27,1.172-2.27,2.739c0,1.567,0.85,2.725,2.27,2.725
				C308.167,474.483,309.017,473.985,309.412,473.37z"/>
			<path id="XMLID_224_" style="fill:#1C1C1B;" d="M311.932,471.744c0-2.051,1.465-3.706,3.486-3.706
				c2.139,0,3.398,1.67,3.398,3.794v0.278h-5.727c0.088,1.333,1.025,2.446,2.549,2.446c0.806,0,1.626-0.322,2.182-0.894l0.527,0.718
				c-0.703,0.703-1.655,1.084-2.812,1.084C313.44,475.465,311.932,473.956,311.932,471.744z M315.403,468.946
				c-1.509,0-2.256,1.274-2.314,2.358h4.644C317.718,470.25,317.015,468.946,315.403,468.946z"/>
			<path id="XMLID_222_" style="fill:#1C1C1B;" d="M319.607,474.352l0.571-0.791c0.469,0.542,1.362,1.011,2.329,1.011
				c1.084,0,1.67-0.513,1.67-1.216c0-1.714-4.38-0.659-4.38-3.281c0-1.099,0.952-2.036,2.636-2.036c1.202,0,2.051,0.454,2.623,1.025
				l-0.513,0.762c-0.424-0.513-1.201-0.893-2.109-0.893c-0.966,0-1.567,0.483-1.567,1.113c0,1.553,4.379,0.527,4.379,3.281
				c0,1.186-0.952,2.139-2.783,2.139C321.306,475.465,320.325,475.113,319.607,474.352z"/>
			<path id="XMLID_219_" style="fill:#1C1C1B;" d="M326.477,466.471c0-0.41,0.337-0.747,0.732-0.747c0.41,0,0.747,0.337,0.747,0.747
				c0,0.41-0.337,0.732-0.747,0.732C326.814,467.203,326.477,466.881,326.477,466.471z M326.667,475.289v-7.075h1.099v7.075H326.667
				z"/>
			<path id="XMLID_216_" style="fill:#1C1C1B;" d="M329.582,477.105l0.556-0.82c0.586,0.703,1.289,0.967,2.3,0.967
				c1.172,0,2.271-0.571,2.271-2.124v-1.011c-0.513,0.718-1.377,1.26-2.373,1.26c-1.846,0-3.149-1.377-3.149-3.662
				c0-2.271,1.289-3.677,3.149-3.677c0.952,0,1.802,0.469,2.373,1.245v-1.069h1.099v6.87c0,2.344-1.641,3.076-3.369,3.076
				C331.237,478.16,330.417,477.925,329.582,477.105z M334.708,473.253v-3.091c-0.381-0.615-1.23-1.143-2.109-1.143
				c-1.421,0-2.27,1.128-2.27,2.695c0,1.553,0.849,2.695,2.27,2.695C333.478,474.41,334.328,473.868,334.708,473.253z"/>
			<path id="XMLID_214_" style="fill:#1C1C1B;" d="M342.413,475.289v-4.629c0-1.245-0.63-1.641-1.582-1.641
				c-0.864,0-1.685,0.527-2.094,1.099v5.171h-1.099v-7.075h1.099v1.025c0.497-0.586,1.464-1.201,2.519-1.201
				c1.479,0,2.256,0.747,2.256,2.285v4.966H342.413z"/>
			<path id="XMLID_211_" style="fill:#1C1C1B;" d="M344.932,471.744c0-2.051,1.465-3.706,3.486-3.706
				c2.139,0,3.398,1.67,3.398,3.794v0.278h-5.727c0.088,1.333,1.025,2.446,2.548,2.446c0.806,0,1.626-0.322,2.183-0.894l0.527,0.718
				c-0.703,0.703-1.655,1.084-2.813,1.084C346.441,475.465,344.932,473.956,344.932,471.744z M348.404,468.946
				c-1.509,0-2.256,1.274-2.314,2.358h4.643C350.718,470.25,350.015,468.946,348.404,468.946z"/>
			<path id="XMLID_208_" style="fill:#1C1C1B;" d="M358.35,475.289v-1.055c-0.527,0.718-1.392,1.23-2.388,1.23
				c-1.845,0-3.149-1.406-3.149-3.706c0-2.256,1.289-3.721,3.149-3.721c0.952,0,1.817,0.469,2.388,1.245v-3.765h1.098v9.771H358.35z
				 M358.35,473.37v-3.208c-0.396-0.615-1.245-1.143-2.124-1.143c-1.421,0-2.271,1.172-2.271,2.739c0,1.567,0.85,2.725,2.271,2.725
				C357.105,474.483,357.954,473.985,358.35,473.37z"/>
			<path id="XMLID_205_" style="fill:#1C1C1B;" d="M364.692,475.289v-9.771h1.099v3.765c0.571-0.776,1.421-1.245,2.388-1.245
				c1.845,0,3.149,1.465,3.149,3.721c0,2.3-1.304,3.706-3.149,3.706c-0.996,0-1.86-0.513-2.388-1.23v1.055H364.692z M367.9,474.483
				c1.436,0,2.285-1.157,2.285-2.725c0-1.567-0.85-2.739-2.285-2.739c-0.864,0-1.729,0.527-2.109,1.143v3.208
				C366.171,473.985,367.036,474.483,367.9,474.483z"/>
			<path id="XMLID_203_" style="fill:#1C1C1B;" d="M372.528,477.061c0.161,0.073,0.425,0.117,0.601,0.117
				c0.483,0,0.806-0.161,1.055-0.747l0.469-1.069l-2.959-7.148h1.186l2.358,5.801l2.344-5.801h1.2l-3.545,8.511
				c-0.425,1.024-1.143,1.421-2.08,1.436c-0.234,0-0.6-0.044-0.806-0.103L372.528,477.061z"/>
		</g>
	</g>
</g>
</svg>
