<svg width="40" height="39" viewBox="0 0 40 39" fill="none" xmlns="http://www.w3.org/2000/svg">
<path d="M37.5442 19.7395C37.5442 18.3464 37.4275 17.3299 37.1748 16.2757H20.7468V22.5633H30.3897C30.1954 24.1258 29.1455 26.479 26.8125 28.0602L26.7798 28.2707L31.974 32.1671L32.3339 32.2019C35.6389 29.2463 37.5442 24.8976 37.5442 19.7395Z" fill="#4285F4"/>
<path d="M20.7456 36.306C25.4698 36.306 29.4358 34.7999 32.3327 32.2021L26.8113 28.0603C25.3338 29.0581 23.3507 29.7546 20.7456 29.7546C16.1186 29.7546 12.1915 26.7991 10.7916 22.714L10.5864 22.7309L5.18538 26.7784L5.11475 26.9685C7.99204 32.5032 13.9022 36.306 20.7456 36.306Z" fill="#34A853"/>
<path d="M10.7927 22.7141C10.4233 21.6599 10.2096 20.5303 10.2096 19.3632C10.2096 18.1959 10.4233 17.0664 10.7733 16.0122L10.7635 15.7877L5.29477 11.6752L5.11584 11.7576C3.92997 14.0544 3.24951 16.6335 3.24951 19.3632C3.24951 22.0928 3.92997 24.6718 5.11584 26.9685L10.7927 22.7141Z" fill="#FBBC05"/>
<path d="M20.7457 8.97159C24.0313 8.97159 26.2476 10.3458 27.5113 11.4943L32.4494 6.82554C29.4167 4.09587 25.47 2.42041 20.7457 2.42041C13.9023 2.42041 7.99206 6.2231 5.11475 11.7577L10.7722 16.0123C12.1915 11.9272 16.1187 8.97159 20.7457 8.97159Z" fill="#EB4335"/>
</svg>
